<?xml version="1.0" encoding="UTF-8" standalone="no"?>
<!-- Created with Inkscape (http://www.inkscape.org/) -->

<svg
   xmlns:dc="http://purl.org/dc/elements/1.1/"
   xmlns:cc="http://creativecommons.org/ns#"
   xmlns:rdf="http://www.w3.org/1999/02/22-rdf-syntax-ns#"
   xmlns:svg="http://www.w3.org/2000/svg"
   xmlns="http://www.w3.org/2000/svg"
   xmlns:sodipodi="http://sodipodi.sourceforge.net/DTD/sodipodi-0.dtd"
   xmlns:inkscape="http://www.inkscape.org/namespaces/inkscape"
   width="900"
   height="600"
   viewBox="0 0 900.00005 600.00002"
   id="svg2"
   version="1.1"
   inkscape:version="0.91 r13725"
   sodipodi:docname="practica1.svg">
  <defs
     id="defs4">
    <inkscape:path-effect
       effect="bend_path"
       id="path-effect4383"
       is_visible="true"
       bendpath="m 399.52665,661.45443 c 39.03385,-17.63378 80.04642,-20.42707 124.15505,0"
       prop_scale="1"
       scale_y_rel="false"
       vertical="false"
       bendpath-nodetypes="cc" />
  </defs>
  <sodipodi:namedview
     id="base"
     pagecolor="#ffffff"
     bordercolor="#666666"
     borderopacity="1.0"
     inkscape:pageopacity="0.0"
     inkscape:pageshadow="2"
     inkscape:zoom="0.90902492"
     inkscape:cx="467.13461"
     inkscape:cy="334.81158"
     inkscape:document-units="px"
     inkscape:current-layer="layer1"
     showgrid="false"
     units="px"
     width="900mm"
     fit-margin-top="0"
     fit-margin-left="0"
     fit-margin-right="0"
     fit-margin-bottom="0"
     inkscape:window-width="1215"
     inkscape:window-height="776"
     inkscape:window-x="65"
     inkscape:window-y="24"
     inkscape:window-maximized="1"
     showguides="false" />
  <metadata
     id="metadata7">
    <rdf:RDF>
      <cc:Work
         rdf:about="">
        <dc:format>image/svg+xml</dc:format>
        <dc:type
           rdf:resource="http://purl.org/dc/dcmitype/StillImage" />
        <dc:title />
      </cc:Work>
    </rdf:RDF>
  </metadata>
  <g
     inkscape:label="Layer 1"
     inkscape:groupmode="layer"
     id="layer1"
     transform="translate(0,-452.36173)">
    <path
       sodipodi:type="star"
       style="fill:#008080"
       id="path3336"
       sodipodi:sides="13"
       sodipodi:cx="446.7897"
       sodipodi:cy="759.55701"
       sodipodi:r1="407.27396"
       sodipodi:r2="325.81918"
       sodipodi:arg1="0.73068609"
       sodipodi:arg2="0.97234706"
       inkscape:flatsided="false"
       inkscape:rounded="0"
       inkscape:randomized="0"
       d="m 750.09342,1031.3638 -119.7496,-2.6117 -41.30693,112.4301 -104.81931,-57.9629 -88.82433,80.3556 L 329.51707,1063.5394 213.52391,1093.412 201.6823,974.2207 85.092958,946.76689 129.99868,835.72518 39.522371,757.23427 130.88807,679.78045 87.251821,568.23376 204.14672,542.11156 217.34707,423.0631 l 115.64488,31.19371 67.01291,-99.27767 87.90201,81.36351 105.47362,-56.76356 40.02186,112.89392 119.77159,-1.2456 -17.02682,118.56168 106.63134,54.55771 -70.17487,97.0684 69.06313,97.8625 -107.24669,53.33792 z"
       inkscape:transform-center-x="-0.1278609"
       inkscape:transform-center-y="-2.6060145"
       transform="matrix(0,0.4979732,-0.49468477,0,836.00443,496.43958)" />
    <path
       style="opacity:0;fill:#008080"
       d="m 205.2372,492.25974 c -0.35896,-1.60401 -5.17845,-48.06197 -10.70999,-103.23992 -5.53154,-55.17794 -10.41265,-101.24939 -10.8469,-102.38098 -0.63496,-1.65461 -16.05574,11.66874 -78.75756,68.04551 -42.882405,38.55663 -78.196511,69.87446 -78.475795,69.59517 -0.279285,-0.27928 17.049005,-44.2825 38.507311,-97.78493 21.458306,-53.50243 38.868034,-97.42422 38.688274,-97.60398 -0.17975,-0.17975 -45.854769,11.26326 -101.5000235,25.42891 -55.6452645,14.16564 -101.6272005,25.59567 -102.1820865,25.40004 -0.55488,-0.19563 34.948574,-31.0143 78.896574,-68.48592 C 22.805,173.76202 58.344088,142.72341 57.832753,142.25897 57.321418,141.79452 10.877955,130.46182 -45.37494,117.07518 -101.62784,103.68854 -147.56085,92.648441 -147.44831,92.54162 -147.33576,92.434811 -101.57313,82.038224 -45.753585,69.438113 10.065964,56.838002 56.67152,46.157512 57.81431,45.703688 59.447344,45.055201 42.895337,30.051093 -19.510207,-24.389614 -63.181478,-62.487115 -98.7002,-93.870125 -98.440695,-94.129625 -98.181192,-94.389136 -52.450392,-82.463059 3.1833032,-67.62725 58.816997,-52.79144 104.5579,-40.875466 104.82975,-41.147319 105.1016,-41.419173 88.255749,-85.642347 67.394519,-139.42106 46.533301,-193.19977 29.652887,-237.38839 29.882487,-237.618 c 0.229613,-0.22961 35.263443,31.6476 77.852953,70.83825 70.08006,64.48727 77.51165,70.998834 78.23722,68.551558 0.44094,-1.487273 5.92646,-48.374678 12.19002,-104.194228 6.26357,-55.81955 11.68914,-101.85077 12.05682,-102.2916 0.36769,-0.44082 14.01735,36.56806 30.33259,82.24197 41.17867,115.2782 41.12268,115.12447 41.9355,115.11698 0.39968,-0.004 27.23661,-39.06638 59.63761,-86.80599 40.32227,-59.41081 58.99574,-86.00333 59.17974,-84.27674 0.14783,1.38741 -6.1959,48.1931 -14.09722,104.01265 -7.90131,55.81955 -13.94733,101.658605 -13.4356,101.864583 0.51172,0.205967 42.55199,-21.894515 93.4228,-49.112183 50.8708,-27.21767 92.64626,-49.36764 92.83435,-49.22216 0.18809,0.14549 -27.24048,38.64408 -60.95239,85.552437 -33.71189,46.908345 -61.29435,85.76323108 -61.29435,86.3441977 0,0.6129651 11.13838,0.8667603 26.53907,0.6047059 14.59649,-0.2483707 62.49807,-0.65886897 106.44794,-0.91220923 L 650.6784,0.23359635 555.31272,47.934113 c -52.45113,26.235293 -95.36569,47.894736 -95.36569,48.132106 0,0.237371 42.2024,22.153351 93.78312,48.702161 l 93.78312,48.27058 -6.5833,0.36401 c -3.62082,0.20021 -49.10415,-0.45827 -101.07408,-1.46327 -113.69103,-2.19858 -103.62414,-2.16348 -102.9228,-0.35893 0.3117,0.80201 27.41114,39.72728 60.22099,86.50062 32.80984,46.77333 59.47386,85.22283 59.25337,85.44332 -0.22051,0.22049 -41.8311,-22.36367 -92.46803,-50.18703 -55.99311,-30.76641 -92.20414,-50.01715 -92.41682,-49.13122 -0.28635,1.19285 23.88727,192.26972 26.04751,205.88878 0.47056,2.96653 -15.34742,-19.99953 -57.84971,-83.9918 -32.17353,-48.4411 -58.70551,-88.29346 -58.95992,-88.5608 -0.25441,-0.26733 -0.73095,-0.21768 -1.05897,0.11036 -0.32801,0.32802 -16.65156,43.85502 -36.27454,96.72667 -19.62298,52.87164 -36.09641,97.18016 -36.60763,98.46337 -0.86956,2.1827 -0.97155,2.1451 -1.58214,-0.58328 l 0,-2e-5 z"
       id="path3433"
       inkscape:connector-curvature="0"
       transform="translate(0,452.36173)" />
    <path
       style="opacity:0;fill:#008080"
       d="m 205.2372,492.25974 c -0.35896,-1.60401 -5.17845,-48.06197 -10.70999,-103.23992 -5.53154,-55.17794 -10.41265,-101.24939 -10.8469,-102.38098 -0.63496,-1.65461 -16.05574,11.66874 -78.75756,68.04551 -42.882405,38.55663 -78.196511,69.87446 -78.475795,69.59517 -0.279285,-0.27928 17.049005,-44.2825 38.507311,-97.78493 21.458306,-53.50243 38.868034,-97.42422 38.688274,-97.60398 -0.17975,-0.17975 -45.854769,11.26326 -101.5000235,25.42891 -55.6452645,14.16564 -101.6272005,25.59567 -102.1820865,25.40004 -0.55488,-0.19563 34.948574,-31.0143 78.896574,-68.48592 C 22.805,173.76202 58.344088,142.72341 57.832753,142.25897 57.321418,141.79452 10.877955,130.46182 -45.37494,117.07518 -101.62784,103.68854 -147.56085,92.648441 -147.44831,92.54162 -147.33576,92.434811 -101.57313,82.038224 -45.753585,69.438113 10.065964,56.838002 56.67152,46.157512 57.81431,45.703688 59.447344,45.055201 42.895337,30.051093 -19.510207,-24.389614 -63.181478,-62.487115 -98.7002,-93.870125 -98.440695,-94.129625 -98.181192,-94.389136 -52.450392,-82.463059 3.1833032,-67.62725 58.816997,-52.79144 104.5579,-40.875466 104.82975,-41.147319 105.1016,-41.419173 88.255749,-85.642347 67.394519,-139.42106 46.533301,-193.19977 29.652887,-237.38839 29.882487,-237.618 c 0.229613,-0.22961 35.263443,31.6476 77.852953,70.83825 70.08006,64.48727 77.51165,70.998834 78.23722,68.551558 0.44094,-1.487273 5.92646,-48.374678 12.19002,-104.194228 6.26357,-55.81955 11.68914,-101.85077 12.05682,-102.2916 0.36769,-0.44082 14.01735,36.56806 30.33259,82.24197 41.17867,115.2782 41.12268,115.12447 41.9355,115.11698 0.39968,-0.004 27.23661,-39.06638 59.63761,-86.80599 40.32227,-59.41081 58.99574,-86.00333 59.17974,-84.27674 0.14783,1.38741 -6.1959,48.1931 -14.09722,104.01265 -7.90131,55.81955 -13.94733,101.658605 -13.4356,101.864583 0.51172,0.205967 42.55199,-21.894515 93.4228,-49.112183 50.8708,-27.21767 92.64626,-49.36764 92.83435,-49.22216 0.18809,0.14549 -27.24048,38.64408 -60.95239,85.552437 -33.71189,46.908345 -61.29435,85.76323108 -61.29435,86.3441977 0,0.6129651 11.13838,0.8667603 26.53907,0.6047059 14.59649,-0.2483707 62.49807,-0.65886897 106.44794,-0.91220923 L 650.6784,0.23359635 555.31272,47.934113 c -52.45113,26.235293 -95.36569,47.894736 -95.36569,48.132106 0,0.237371 42.2024,22.153351 93.78312,48.702161 l 93.78312,48.27058 -6.5833,0.36401 c -3.62082,0.20021 -49.10415,-0.45827 -101.07408,-1.46327 -113.69103,-2.19858 -103.62414,-2.16348 -102.9228,-0.35893 0.3117,0.80201 27.41114,39.72728 60.22099,86.50062 32.80984,46.77333 59.47386,85.22283 59.25337,85.44332 -0.22051,0.22049 -41.8311,-22.36367 -92.46803,-50.18703 -55.99311,-30.76641 -92.20414,-50.01715 -92.41682,-49.13122 -0.28635,1.19285 23.88727,192.26972 26.04751,205.88878 0.47056,2.96653 -15.34742,-19.99953 -57.84971,-83.9918 -32.17353,-48.4411 -58.70551,-88.29346 -58.95992,-88.5608 -0.25441,-0.26733 -0.73095,-0.21768 -1.05897,0.11036 -0.32801,0.32802 -16.65156,43.85502 -36.27454,96.72667 -19.62298,52.87164 -36.09641,97.18016 -36.60763,98.46337 -0.86956,2.1827 -0.97155,2.1451 -1.58214,-0.58328 l 0,-2e-5 z"
       id="path3435"
       inkscape:connector-curvature="0"
       transform="translate(0,452.36173)" />
    <path
       style="opacity:0;fill:#008080"
       d="m 205.2372,492.25974 c -0.35896,-1.60401 -5.17845,-48.06197 -10.70999,-103.23992 -5.53154,-55.17794 -10.41265,-101.24939 -10.8469,-102.38098 -0.63496,-1.65461 -16.05574,11.66874 -78.75756,68.04551 -42.882405,38.55663 -78.196511,69.87446 -78.475795,69.59517 -0.279285,-0.27928 17.049005,-44.2825 38.507311,-97.78493 21.458306,-53.50243 38.868034,-97.42422 38.688274,-97.60398 -0.17975,-0.17975 -45.854769,11.26326 -101.5000235,25.42891 -55.6452645,14.16564 -101.6272005,25.59567 -102.1820865,25.40004 -0.55488,-0.19563 34.948574,-31.0143 78.896574,-68.48592 C 22.805,173.76202 58.344088,142.72341 57.832753,142.25897 57.321418,141.79452 10.877955,130.46182 -45.37494,117.07518 -101.62784,103.68854 -147.56085,92.648441 -147.44831,92.54162 -147.33576,92.434811 -101.57313,82.038224 -45.753585,69.438113 10.065964,56.838002 56.67152,46.157512 57.81431,45.703688 59.447344,45.055201 42.895337,30.051093 -19.510207,-24.389614 -63.181478,-62.487115 -98.7002,-93.870125 -98.440695,-94.129625 -98.181192,-94.389136 -52.450392,-82.463059 3.1833032,-67.62725 58.816997,-52.79144 104.5579,-40.875466 104.82975,-41.147319 105.1016,-41.419173 88.255749,-85.642347 67.394519,-139.42106 46.533301,-193.19977 29.652887,-237.38839 29.882487,-237.618 c 0.229613,-0.22961 35.263443,31.6476 77.852953,70.83825 70.08006,64.48727 77.51165,70.998834 78.23722,68.551558 0.44094,-1.487273 5.92646,-48.374678 12.19002,-104.194228 6.26357,-55.81955 11.68914,-101.85077 12.05682,-102.2916 0.36769,-0.44082 14.01735,36.56806 30.33259,82.24197 41.17867,115.2782 41.12268,115.12447 41.9355,115.11698 0.39968,-0.004 27.23661,-39.06638 59.63761,-86.80599 40.32227,-59.41081 58.99574,-86.00333 59.17974,-84.27674 0.14783,1.38741 -6.1959,48.1931 -14.09722,104.01265 -7.90131,55.81955 -13.94733,101.658605 -13.4356,101.864583 0.51172,0.205967 42.55199,-21.894515 93.4228,-49.112183 50.8708,-27.21767 92.64626,-49.36764 92.83435,-49.22216 0.18809,0.14549 -27.24048,38.64408 -60.95239,85.552437 -33.71189,46.908345 -61.29435,85.76323108 -61.29435,86.3441977 0,0.6129651 11.13838,0.8667603 26.53907,0.6047059 14.59649,-0.2483707 62.49807,-0.65886897 106.44794,-0.91220923 L 650.6784,0.23359635 555.31272,47.934113 c -52.45113,26.235293 -95.36569,47.894736 -95.36569,48.132106 0,0.237371 42.2024,22.153351 93.78312,48.702161 l 93.78312,48.27058 -6.5833,0.36401 c -3.62082,0.20021 -49.10415,-0.45827 -101.07408,-1.46327 -113.69103,-2.19858 -103.62414,-2.16348 -102.9228,-0.35893 0.3117,0.80201 27.41114,39.72728 60.22099,86.50062 32.80984,46.77333 59.47386,85.22283 59.25337,85.44332 -0.22051,0.22049 -41.8311,-22.36367 -92.46803,-50.18703 -55.99311,-30.76641 -92.20414,-50.01715 -92.41682,-49.13122 -0.28635,1.19285 23.88727,192.26972 26.04751,205.88878 0.47056,2.96653 -15.34742,-19.99953 -57.84971,-83.9918 -32.17353,-48.4411 -58.70551,-88.29346 -58.95992,-88.5608 -0.25441,-0.26733 -0.73095,-0.21768 -1.05897,0.11036 -0.32801,0.32802 -16.65156,43.85502 -36.27454,96.72667 -19.62298,52.87164 -36.09641,97.18016 -36.60763,98.46337 -0.86956,2.1827 -0.97155,2.1451 -1.58214,-0.58328 l 0,-2e-5 z"
       id="path3437"
       inkscape:connector-curvature="0"
       transform="translate(0,452.36173)" />
    <path
       sodipodi:type="star"
       style="fill:#374548;fill-opacity:1"
       id="path3451"
       sodipodi:sides="13"
       sodipodi:cx="446.7897"
       sodipodi:cy="759.55701"
       sodipodi:r1="407.27396"
       sodipodi:r2="325.81918"
       sodipodi:arg1="0.73068609"
       sodipodi:arg2="0.97234706"
       inkscape:flatsided="false"
       inkscape:rounded="0"
       inkscape:randomized="0"
       d="m 750.09342,1031.3638 -119.7496,-2.6117 -41.30693,112.4301 -104.81931,-57.9629 -88.82433,80.3556 L 329.51707,1063.5394 213.52391,1093.412 201.6823,974.2207 85.092958,946.76689 129.99868,835.72518 39.522371,757.23427 130.88807,679.78045 87.251821,568.23376 204.14672,542.11156 217.34707,423.0631 l 115.64488,31.19371 67.01291,-99.27767 87.90201,81.36351 105.47362,-56.76356 40.02186,112.89392 119.77159,-1.2456 -17.02682,118.56168 106.63134,54.55771 -70.17487,97.0684 69.06313,97.8625 -107.24669,53.33792 z"
       inkscape:transform-center-x="0.12786474"
       inkscape:transform-center-y="2.60602"
       transform="matrix(0,-0.4979732,0.49468477,0,88.042793,935.18102)" />
    <ellipse
       style="opacity:0;fill:#333333"
       id="path3453"
       cx="419.3757"
       cy="691.31366"
       rx="70.576439"
       ry="83.408524" />
    <ellipse
       style="opacity:0;fill:#333333"
       id="path3455"
       cx="506.86716"
       cy="800.9696"
       rx="110.23924"
       ry="26.247437" />
    <ellipse
       style="opacity:0;fill:#cccccc"
       id="path4259"
       cx="112.57234"
       cy="547.82764"
       rx="70.576439"
       ry="68.243332" />
    <ellipse
       style="opacity:0;fill:#cccccc"
       id="path4261"
       cx="95.074051"
       cy="525.66315"
       rx="43.745728"
       ry="42.579174" />
    <ellipse
       style="opacity:0;fill:#cccccc"
       id="path4263"
       cx="167.40031"
       cy="616.6543"
       rx="34.413307"
       ry="53.078152" />
    <ellipse
       style="opacity:0;fill:#cccccc"
       id="path4265"
       cx="118.98838"
       cy="578.74133"
       rx="95.657326"
       ry="113.15562" />
    <path
       style="opacity:0;fill:#cccccc"
       id="path4267"
       sodipodi:type="arc"
       sodipodi:cx="140.56961"
       sodipodi:cy="567.07581"
       sodipodi:rx="92.740944"
       sodipodi:ry="68.826614"
       sodipodi:start="0"
       sodipodi:end="1.3641228"
       d="m 233.31055,567.07581 a 92.740944,68.826614 0 0 1 -73.71,67.36191 l -19.03094,-67.36191 z" />
    <ellipse
       style="opacity:0;fill:#ff2a2a"
       id="path4293"
       cx="421.70883"
       cy="655.15051"
       rx="51.911598"
       ry="39.079517" />
    <ellipse
       style="fill:none;fill-opacity:1;fill-rule:evenodd;stroke:#cccccc;stroke-width:3.0000001;stroke-linecap:butt;stroke-linejoin:miter;stroke-miterlimit:4;stroke-dasharray:none;stroke-opacity:0.94117647"
       id="path3346"
       cx="462.90268"
       cy="713.29596"
       rx="149.31253"
       ry="149.31252" />
    <circle
       style="fill:none;fill-rule:evenodd;stroke:#cccccc;stroke-width:2.00000007;stroke-linecap:butt;stroke-linejoin:miter;stroke-opacity:0.94117647;stroke-miterlimit:4;stroke-dasharray:4.00000014,2.00000007;stroke-dashoffset:0"
       id="path4152"
       cx="462.19156"
       cy="713.0545"
       r="134.37975" />
    <text
       xml:space="preserve"
       style="font-style:normal;font-weight:normal;font-size:40px;line-height:125%;font-family:sans-serif;letter-spacing:0px;word-spacing:0px;fill:#000000;fill-opacity:1;stroke:none;stroke-width:1px;stroke-linecap:butt;stroke-linejoin:miter;stroke-opacity:1"
       x="381.98929"
       y="608.45398"
       id="text4212"
       sodipodi:linespacing="125%"><tspan
         sodipodi:role="line"
         id="tspan4214"
         x="381.98929"
         y="608.45398" /></text>
    <g
       style="font-style:normal;font-weight:normal;font-size:40px;line-height:125%;font-family:sans-serif;letter-spacing:0px;word-spacing:0px;fill:#899ca2;fill-opacity:1;stroke:none;stroke-width:1px;stroke-linecap:butt;stroke-linejoin:miter;stroke-opacity:1"
       id="text4240"
       transform="matrix(-0.92160937,-0.38811874,0.38811879,-0.92160937,613.59697,1545.8844)">
      <path
         d="m 585.47231,717.22645 -0.58589,3.54567 -17.5743,1.64909 16.11275,7.19581 -0.69097,4.18157 -17.57429,1.6491 16.11274,7.19581 -0.58589,3.54567 -20.64936,-9.2124 0.69097,-4.18157 18.4572,-1.72097 -16.91923,-7.58642 0.69097,-4.18157 22.5153,-2.07979 z"
         id="path4342"
         inkscape:connector-curvature="0" />
      <path
         d="m 559.00192,769.70662 -1.58012,-0.77014 7.23928,-14.85317 q -3.4385,-1.41516 -6.06702,-0.48006 -2.61951,0.96121 -4.18546,4.17413 -0.90705,1.86104 -1.29772,3.82166 -0.39923,1.97818 -0.32486,4.14372 l -3.05491,-1.48893 q 0.10976,-2.09753 0.61345,-4.11171 0.50368,-2.01418 1.41929,-3.89277 2.29329,-4.70526 6.37564,-6.1268 4.07378,-1.40397 8.74393,0.87221 4.82816,2.35319 6.38838,6.32931 1.56922,4.00223 -0.58716,8.42658 -1.9339,3.96787 -5.61819,5.01849 -3.67529,1.07674 -8.06453,-1.06252 z m 2.52258,-2.7684 q 2.66821,1.25701 4.95857,0.56992 2.28181,-0.66954 3.44557,-3.05728 1.31779,-2.70377 0.58614,-5.08103 -0.7402,-2.3597 -3.3944,-3.95752 l -5.59588,11.52591 z"
         id="path4344"
         inkscape:connector-curvature="0" />
      <path
         d="m 569.15236,787.18185 -2.12644,2.89712 -24.49956,-17.98226 2.12643,-2.89712 24.49957,17.98226 z"
         id="path4346"
         inkscape:connector-curvature="0" />
      <path
         d="m 541.32591,804.11214 -2.34322,-2.40722 q 1.67745,-0.46082 3.06919,-1.24316 1.39136,-0.75472 2.511,-1.84459 2.50519,-2.43859 2.33767,-5.38279 -0.15389,-2.9302 -2.94668,-5.79927 -2.79279,-2.86907 -5.73141,-3.11584 -2.92499,-0.23278 -5.43018,2.20581 -1.11964,1.08987 -1.9252,2.4464 -0.80593,1.38414 -1.31177,3.04857 l -2.31597,-2.37923 q 0.58721,-1.55284 1.50361,-2.93549 0.90241,-1.36904 2.20399,-2.63601 3.54085,-3.44672 7.7923,-3.25132 4.25144,0.19539 7.92975,3.97417 3.73281,3.83476 3.77236,8.07556 0.0255,4.25442 -3.64126,7.82374 -1.18962,1.15799 -2.56847,2.00956 -1.36523,0.86558 -2.90571,1.41111 z"
         id="path4348"
         inkscape:connector-curvature="0" />
      <path
         d="m 524.27711,813.87251 q 2.48087,-1.48359 2.75964,-4.29013 0.2888,-2.78978 -1.72606,-6.15907 -2.01487,-3.36928 -4.6025,-4.46168 -2.59437,-1.06562 -5.092,0.42799 -2.4641,1.47356 -2.74287,4.2801 -0.27878,2.80655 1.72606,6.15907 1.99482,3.33576 4.59921,4.41813 2.61442,1.09915 5.07852,-0.37441 z m 1.56378,2.61496 q -4.02302,2.40582 -7.88328,1.16417 -3.86025,-1.24165 -6.62693,-5.86813 -2.75666,-4.60972 -2.03399,-8.61476 0.7327,-3.98829 4.75573,-6.3941 4.03978,-2.41583 7.90004,-1.17418 3.85351,1.26843 6.61017,5.87815 2.76669,4.62648 2.05075,8.60474 -0.7327,3.98828 -4.77249,6.40411 z"
         id="path4350"
         inkscape:connector-curvature="0" />
      <path
         d="m 487.57174,826.47076 q -0.79046,2.65647 -2.37099,4.18796 -1.58053,1.53148 -4.05918,2.08203 -3.33666,0.74112 -5.66888,-1.20175 -2.32799,-1.9238 -3.2851,-6.23285 l -2.86283,-12.88901 3.52732,-0.78347 2.83742,12.77461 q 0.68183,3.06972 2.09896,4.31552 1.41712,1.2458 3.64791,0.75031 2.72652,-0.6056 3.90673,-2.76843 1.1802,-2.16282 0.48567,-5.28975 l -2.68074,-12.06915 3.52732,-0.78346 2.83743,12.77461 q 0.68606,3.08879 2.09895,4.31552 1.41712,1.2458 3.68605,0.74184 2.68839,-0.59713 3.86436,-2.77902 1.1802,-2.16283 0.4899,-5.27069 l -2.68073,-12.06915 3.52732,-0.78347 4.74316,21.35458 -3.52732,0.78347 -0.73688,-3.31758 q -0.765,2.23066 -2.23534,3.5376 -1.47035,1.30694 -3.77741,1.81937 -2.32612,0.51666 -4.20935,-0.30549 -1.90229,-0.81792 -3.18375,-2.89415 z"
         id="path4352"
         inkscape:connector-curvature="0" />
      <path
         d="m 442.1037,821.55972 0.17495,-1.74908 16.4414,1.64452 q 0.13612,-3.71584 -1.65179,-5.85754 -1.80928,-2.12421 -5.36575,-2.47995 -2.06004,-0.20605 -4.03457,0.1068 -1.99397,0.3109 -3.99961,1.13099 l 0.33824,-3.38157 q 2.00563,-0.62379 4.06956,-0.84918 2.06393,-0.22539 4.1434,-0.0174 5.20838,0.52096 7.95632,3.8579 2.7285,3.33499 2.21143,8.50451 -0.53457,5.34442 -3.72381,8.18565 -3.21061,2.85871 -8.10805,2.36885 -4.39215,-0.43931 -6.65423,-3.53137 -2.28346,-3.07456 -1.79749,-7.93313 z m 3.47094,1.40713 q -0.25466,2.93846 1.18344,4.84889 1.41866,1.90848 4.06172,2.17285 2.99288,0.29936 4.96938,-1.21065 1.95707,-1.51194 2.53629,-4.55534 l -12.75083,-1.25575 z"
         id="path4354"
         inkscape:connector-curvature="0" />
      <path
         d="m 410.53752,827.9356 2.59963,-5.64071 -6.72273,-3.09831 1.16902,-2.53654 6.72273,3.0983 4.97037,-10.78476 q 1.11997,-2.43012 0.78249,-3.42437 -0.35523,-1.00244 -2.39511,-1.94256 l -3.3525,-1.54506 1.25894,-2.73167 3.3525,1.54507 q 3.77822,1.74126 4.56918,3.80474 0.78279,2.08122 -0.93395,5.80622 l -4.97037,10.78476 2.39464,1.10362 -1.16902,2.53654 -2.39464,-1.10361 -2.59964,5.64071 -3.28154,-1.51237 z"
         id="path4356"
         inkscape:connector-curvature="0" />
      <path
         d="m 393.07184,807.60523 q 2.32908,1.71204 5.02433,0.88138 2.68369,-0.81492 5.00883,-3.97807 2.32514,-3.16314 2.32937,-5.9719 -0.0231,-2.8046 -2.3679,-4.52821 -2.31334,-1.70048 -5.0086,-0.86982 -2.69526,0.83066 -5.00883,3.97807 -2.30201,3.13167 -2.29049,5.952 -6e-5,2.83607 2.31329,4.53655 z m -1.80459,2.45497 q -3.77689,-2.77628 -4.12828,-6.81606 -0.35138,-4.03977 2.84135,-8.3832 3.18116,-4.32768 7.15329,-5.2136 3.96056,-0.87018 7.73745,1.90611 3.79262,2.78786 4.14401,6.82763 0.32408,4.04395 -2.85708,8.37163 -3.19273,4.34342 -7.13756,5.22517 -3.96056,0.87018 -7.75318,-1.91768 z"
         id="path4358"
         inkscape:connector-curvature="0" />
    </g>
    <path
       style="opacity:0.46700003;fill:#53676c;fill-opacity:1;stroke:#cccccc;stroke-width:1.35904396;stroke-miterlimit:4;stroke-dasharray:2.71808799, 1.35904399;stroke-dashoffset:0;stroke-opacity:0.94117647"
       d="M 460.16406 168.87891 L 453.38672 182.03516 L 439.06055 185.54883 L 449.53125 196.52539 L 448.82422 211.50977 L 462.07422 205.13672 L 475.96289 210.88477 L 473.68164 195.96875 L 482.9707 184.53711 L 468.31055 181.68945 L 460.16406 168.87891 z M 514.53906 190.95117 C 512.12403 192.9996 509.77107 195.09511 507.48438 197.23242 C 504.22685 196.93713 500.97949 196.74312 497.75195 196.6543 C 499.39609 199.44831 500.92789 202.26855 502.35156 205.10547 C 501.2858 208.04352 500.2299 210.98406 499.18164 213.92773 C 502.06614 213.42651 505.00489 213.01517 507.98828 212.69531 C 510.22282 214.79104 512.36951 216.93834 514.43164 219.125 C 515.24407 216.09244 516.03072 213.04938 516.79102 209.99805 C 519.5191 208.5592 522.31313 207.18742 525.16602 205.88672 C 522.49174 203.99295 519.74517 202.16606 516.92969 200.41406 C 516.22515 197.26339 515.43002 194.10687 514.53906 190.95117 z M 407.62891 191.41992 C 407.07998 194.53507 406.6058 197.64585 406.20312 200.74805 C 403.50933 202.58722 400.88592 204.48923 398.33203 206.44727 C 401.36007 207.58627 404.33159 208.80179 407.23828 210.08984 C 408.27747 213.03776 409.32474 215.98388 410.37891 218.92578 C 412.32012 216.69873 414.33928 214.50353 416.44141 212.35156 C 419.50728 212.53797 422.53356 212.8166 425.50977 213.1875 C 424.20166 210.33349 422.86764 207.48876 421.50586 204.6543 C 422.68719 201.80581 423.9618 198.96812 425.33594 196.14648 C 422.06284 196.39181 418.78053 196.74002 415.49609 197.1875 C 412.94357 195.2112 410.31864 193.28756 407.62891 191.41992 z "
       transform="translate(0,452.36173)"
       id="path4360" />
    <path
       style="opacity:0.94;fill:#37c8ab;fill-opacity:1;stroke:#374548;stroke-width:1.24687028;stroke-miterlimit:4;stroke-dasharray:2.49374063, 1.24687031999999998;stroke-dashoffset:0;stroke-opacity:1"
       d="m 274.15414,700.66199 98.75314,0 0,113.75303 -98.75314,0 40,-56.87652 z"
       id="rect4388"
       inkscape:connector-curvature="0"
       sodipodi:nodetypes="cccccc" />
    <path
       style="opacity:0.94;fill:#37c8ab;fill-opacity:1;stroke:#374548;stroke-width:1.24687052;stroke-miterlimit:4;stroke-dasharray:2.49374122, 1.24687061000000021;stroke-dashoffset:0;stroke-opacity:1"
       d="m 554.15405,700.66187 98.75314,0 -40,56.87656 40,56.87656 -98.75314,0 z"
       id="rect4406"
       inkscape:connector-curvature="0"
       sodipodi:nodetypes="cccccc" />
    <path
       style="fill:#374548;fill-opacity:1;fill-rule:evenodd;stroke:#000000;stroke-width:1px;stroke-linecap:butt;stroke-linejoin:miter;stroke-opacity:1"
       d="m 553.59202,790.50777 -2.19686,20.86332 41.09794,-16.8976 -38.44525,-26.05622 z"
       id="path4424"
       inkscape:connector-curvature="0" />
    <path
       style="fill:#374548;fill-opacity:1;fill-rule:evenodd;stroke:none;stroke-width:1;stroke-linecap:butt;stroke-linejoin:miter;stroke-miterlimit:4;stroke-dasharray:none;stroke-opacity:1"
       d="m 372.43277,791.83845 -0.4164,-20.97453 -37.72352,21.90477 37.65276,18.11536 z"
       id="path4422"
       inkscape:connector-curvature="0" />
    <path
       style="opacity:0.93999999;fill:#374548;fill-opacity:1;stroke:none;stroke-width:1;stroke-miterlimit:4;stroke-dasharray:none;stroke-dashoffset:0;stroke-opacity:1"
       d="M 374.86914 248.21094 L 352.01367 250.88672 L 314.86914 251.14453 L 351.69141 251.48633 L 365.25195 253.33594 L 352.01367 254.88672 L 314.86914 255.14453 L 351.69141 255.48633 L 365.25195 257.33594 L 352.01367 258.88672 L 314.86914 259.14453 L 351.69141 259.48633 L 365.25195 261.33594 L 352.01367 262.88672 L 314.86914 263.14453 L 351.69141 263.48633 L 365.25195 265.33594 L 352.01367 266.88672 L 314.86914 267.14453 L 351.69141 267.48633 L 365.25195 269.33594 L 352.01367 270.88672 L 314.86914 271.14453 L 351.69141 271.48633 L 365.25195 273.33594 L 352.01367 274.88672 L 314.86914 275.14453 L 351.69141 275.48633 L 365.25195 277.33594 L 352.01367 278.88672 L 314.86914 279.14453 L 351.69141 279.48633 L 365.25195 281.33594 L 352.01367 282.88672 L 314.86914 283.14453 L 351.69141 283.48633 L 365.25195 285.33594 L 352.01367 286.88672 L 314.86914 287.14453 L 351.69141 287.48633 L 365.25195 289.33594 L 352.01367 290.88672 L 314.86914 291.14453 L 351.69141 291.48633 L 365.25195 293.33594 L 352.01367 294.88672 L 314.86914 295.14453 L 351.69141 295.48633 L 365.25195 297.33594 L 352.01367 298.88672 L 314.86914 299.14453 L 351.69141 299.48633 L 365.25195 301.33594 L 352.01367 302.88672 L 314.86914 303.14453 L 351.69141 303.48633 L 365.25195 305.33594 L 352.01367 306.88672 L 314.86914 307.14453 L 351.69141 307.48633 L 365.25195 309.33594 L 352.01367 310.88672 L 314.86914 311.14453 L 351.69141 311.48633 L 365.25195 313.33594 L 352.01367 314.88672 L 314.86914 315.14453 L 351.69141 315.48633 L 365.25195 317.33594 L 352.01367 318.88672 L 314.86914 319.14453 L 351.69141 319.48633 L 365.25195 321.33594 L 352.01367 322.88672 L 314.86914 323.14453 L 351.69141 323.48633 L 365.25195 325.33594 L 352.01367 326.88672 L 314.86914 327.14453 L 351.69141 327.48633 L 365.25195 329.33594 L 352.01367 330.88672 L 314.86914 331.14453 L 351.69141 331.48633 L 365.25195 333.33594 L 352.01367 334.88672 L 314.86914 335.14453 L 351.69141 335.48633 L 365.25195 337.33594 L 352.01367 338.88672 L 314.86914 339.14453 L 351.69141 339.48633 L 365.25195 341.33594 L 352.01367 342.88672 L 314.86914 343.14453 L 351.69141 343.48633 L 365.25195 345.33594 L 352.01367 346.88672 L 314.86914 347.14453 L 351.69141 347.48633 L 365.24805 349.33594 L 352.01367 350.88672 L 314.86914 351.14453 L 351.69141 351.48633 L 365.25195 353.33594 L 352.01367 354.88672 L 314.86914 355.14453 L 351.69141 355.48633 L 365.25195 357.33594 L 352.01367 358.88672 L 314.86914 359.14453 L 351.69141 359.48633 L 371.6582 362.21094 L 357.69141 359.19336 L 367.00586 357.57617 L 371.6582 358.21094 L 367.95703 357.41211 L 374.86914 356.21094 L 366.7832 357.1582 L 357.69141 355.19336 L 367.00586 353.57617 L 371.6582 354.21094 L 367.95703 353.41211 L 374.86914 352.21094 L 366.7832 353.1582 L 357.69141 351.19336 L 367.00586 349.57617 L 371.6582 350.21094 L 367.95898 349.41211 L 374.86914 348.21094 L 366.78516 349.1582 L 366.7832 349.1582 L 357.69141 347.19336 L 367.00586 345.57617 L 371.6582 346.21094 L 367.95703 345.41211 L 374.86914 344.21094 L 366.7832 345.1582 L 357.69141 343.19336 L 367.00586 341.57617 L 371.6582 342.21094 L 367.95703 341.41211 L 374.86914 340.21094 L 366.7832 341.1582 L 366.78125 341.1582 L 357.69141 339.19336 L 367.00586 337.57617 L 371.6582 338.21094 L 367.95703 337.41211 L 374.86914 336.21094 L 366.7832 337.1582 L 357.69141 335.19336 L 367.00586 333.57617 L 371.6582 334.21094 L 367.95703 333.41211 L 374.86914 332.21094 L 366.7832 333.1582 L 357.69141 331.19336 L 367.00586 329.57617 L 371.6582 330.21094 L 367.95703 329.41211 L 374.86914 328.21094 L 366.7832 329.1582 L 357.69141 327.19336 L 367.00586 325.57617 L 371.6582 326.21094 L 367.95703 325.41211 L 374.86914 324.21094 L 366.7832 325.1582 L 357.69141 323.19336 L 367.00586 321.57617 L 371.6582 322.21094 L 367.95703 321.41211 L 374.86914 320.21094 L 366.7832 321.1582 L 357.69141 319.19336 L 367.00586 317.57617 L 371.6582 318.21094 L 367.95703 317.41211 L 374.86914 316.21094 L 366.7832 317.1582 L 357.69141 315.19336 L 367.00586 313.57617 L 371.6582 314.21094 L 367.95703 313.41211 L 374.86914 312.21094 L 366.7832 313.1582 L 357.69141 311.19336 L 367.00586 309.57617 L 371.6582 310.21094 L 367.95703 309.41211 L 374.86914 308.21094 L 366.7832 309.1582 L 357.69141 307.19336 L 367.00586 305.57617 L 371.6582 306.21094 L 367.95703 305.41211 L 374.86914 304.21094 L 366.7832 305.1582 L 357.69141 303.19336 L 367.00586 301.57617 L 371.6582 302.21094 L 367.95703 301.41211 L 374.86914 300.21094 L 366.7832 301.1582 L 357.69141 299.19336 L 367.00586 297.57617 L 371.6582 298.21094 L 367.95703 297.41211 L 374.86914 296.21094 L 366.7832 297.1582 L 357.69141 295.19336 L 367.00586 293.57617 L 371.6582 294.21094 L 367.95703 293.41211 L 374.86914 292.21094 L 366.7832 293.1582 L 357.69141 291.19336 L 367.00586 289.57617 L 371.6582 290.21094 L 367.95703 289.41211 L 374.86914 288.21094 L 366.7832 289.1582 L 357.69141 287.19336 L 367.00586 285.57617 L 371.6582 286.21094 L 367.95703 285.41211 L 374.86914 284.21094 L 366.7832 285.1582 L 357.69141 283.19336 L 367.00586 281.57617 L 371.6582 282.21094 L 367.95703 281.41211 L 374.86914 280.21094 L 366.7832 281.1582 L 357.69141 279.19336 L 367.00586 277.57617 L 371.6582 278.21094 L 367.95703 277.41211 L 374.86914 276.21094 L 366.7832 277.1582 L 357.69141 275.19336 L 367.00586 273.57617 L 371.6582 274.21094 L 367.95703 273.41211 L 374.86914 272.21094 L 366.7832 273.1582 L 357.69141 271.19336 L 367.00586 269.57617 L 371.6582 270.21094 L 367.95703 269.41211 L 374.86914 268.21094 L 366.7832 269.1582 L 357.69141 267.19336 L 367.00586 265.57617 L 371.6582 266.21094 L 367.95703 265.41211 L 374.86914 264.21094 L 366.7832 265.1582 L 357.69141 263.19336 L 367.00586 261.57617 L 371.6582 262.21094 L 367.95703 261.41211 L 374.86914 260.21094 L 366.7832 261.1582 L 357.69141 259.19336 L 367.00586 257.57617 L 371.6582 258.21094 L 367.95703 257.41211 L 374.86914 256.21094 L 366.7832 257.1582 L 357.69141 255.19336 L 367.00586 253.57617 L 371.6582 254.21094 L 367.95703 253.41211 L 374.86914 252.21094 L 366.7832 253.1582 L 357.69141 251.19336 L 374.86914 248.21094 z "
       transform="translate(0,452.36173)"
       id="path4440" />
    <path
       id="path4453"
       d="m 554.86914,814.57267 22.85547,-2.67578 37.14453,-0.25781 -36.82227,-0.3418 -13.56054,-1.84961 13.23828,-1.55078 37.14453,-0.25781 -36.82227,-0.3418 -13.56054,-1.84961 13.23828,-1.55078 37.14453,-0.25781 -36.82227,-0.3418 -13.56054,-1.84961 13.23828,-1.55078 37.14453,-0.25781 -36.82227,-0.3418 -13.56054,-1.84961 13.23828,-1.55078 37.14453,-0.25781 -36.82227,-0.3418 -13.56054,-1.84961 13.23828,-1.55078 37.14453,-0.25781 -36.82227,-0.3418 -13.56054,-1.84961 13.23828,-1.55078 37.14453,-0.25781 -36.82227,-0.3418 -13.56054,-1.84961 13.23828,-1.55078 37.14453,-0.25781 -36.82227,-0.3418 -13.56054,-1.84961 13.23828,-1.55078 37.14453,-0.25781 -36.82227,-0.3418 -13.56054,-1.84961 13.23828,-1.55078 37.14453,-0.25781 -36.82227,-0.3418 -13.56054,-1.84961 13.23828,-1.55078 37.14453,-0.25781 -36.82227,-0.3418 -13.56054,-1.84961 13.23828,-1.55078 37.14453,-0.25781 -36.82227,-0.3418 -13.56054,-1.84961 13.23828,-1.55078 37.14453,-0.25781 -36.82227,-0.3418 -13.56054,-1.84961 13.23828,-1.55078 37.14453,-0.25781 -36.82227,-0.3418 -13.56054,-1.84961 13.23828,-1.55078 37.14453,-0.25781 -36.82227,-0.3418 -13.56054,-1.84961 13.23828,-1.55078 37.14453,-0.25781 -36.82227,-0.3418 -13.56054,-1.84961 13.23828,-1.55078 37.14453,-0.25781 -36.82227,-0.3418 -13.56054,-1.84961 13.23828,-1.55078 37.14453,-0.25781 -36.82227,-0.3418 -13.56054,-1.84961 13.23828,-1.55078 37.14453,-0.25781 -36.82227,-0.3418 -13.56054,-1.84961 13.23828,-1.55078 37.14453,-0.25781 -36.82227,-0.3418 -13.56054,-1.84961 13.23828,-1.55078 37.14453,-0.25781 -36.82227,-0.3418 -13.56054,-1.84961 13.23828,-1.55078 37.14453,-0.25781 -36.82227,-0.3418 -13.56054,-1.84961 13.23828,-1.55078 37.14453,-0.25781 -36.82227,-0.3418 -13.56054,-1.84961 13.23828,-1.55078 37.14453,-0.25781 -36.82227,-0.3418 -13.56054,-1.84961 13.23828,-1.55078 37.14453,-0.25781 -36.82227,-0.3418 -13.55664,-1.84961 13.23438,-1.55078 37.14453,-0.25781 -36.82227,-0.3418 -13.56054,-1.84961 13.23828,-1.55078 37.14453,-0.25781 -36.82227,-0.3418 -13.56054,-1.84961 13.23828,-1.55078 37.14453,-0.25781 -36.82227,-0.3418 -19.96679,-2.72461 13.96679,3.01758 -9.31445,1.61719 -4.65234,-0.63477 3.70117,0.79883 -6.91211,1.20117 8.08594,-0.94726 9.09179,1.96484 -9.31445,1.61719 -4.65234,-0.63477 3.70117,0.79883 -6.91211,1.20117 8.08594,-0.94726 9.09179,1.96484 -9.31445,1.61719 -4.65234,-0.63477 3.69922,0.79883 -6.91016,1.20117 8.08398,-0.94726 0.002,0 9.09179,1.96484 -9.31445,1.61719 -4.65234,-0.63477 3.70117,0.79883 -6.91211,1.20117 8.08594,-0.94726 9.09179,1.96484 -9.31445,1.61719 -4.65234,-0.63477 3.70117,0.79883 -6.91211,1.20117 8.08594,-0.94726 0.002,0 9.08984,1.96484 -9.31445,1.61719 -4.65234,-0.63477 3.70117,0.79883 -6.91211,1.20117 8.08594,-0.94726 9.09179,1.96484 -9.31445,1.61719 -4.65234,-0.63477 3.70117,0.79883 -6.91211,1.20117 8.08594,-0.94726 9.09179,1.96484 -9.31445,1.61719 -4.65234,-0.63477 3.70117,0.79883 -6.91211,1.20117 8.08594,-0.94726 9.09179,1.96484 -9.31445,1.61719 -4.65234,-0.63477 3.70117,0.79883 -6.91211,1.20117 8.08594,-0.94726 9.09179,1.96484 -9.31445,1.61719 -4.65234,-0.63477 3.70117,0.79883 -6.91211,1.20117 8.08594,-0.94726 9.09179,1.96484 -9.31445,1.61719 -4.65234,-0.63477 3.70117,0.79883 -6.91211,1.20117 8.08594,-0.94726 9.09179,1.96484 -9.31445,1.61719 -4.65234,-0.63477 3.70117,0.79883 -6.91211,1.20117 8.08594,-0.94726 9.09179,1.96484 -9.31445,1.61719 -4.65234,-0.63477 3.70117,0.79883 -6.91211,1.20117 8.08594,-0.94726 9.09179,1.96484 -9.31445,1.61719 -4.65234,-0.63477 3.70117,0.79883 -6.91211,1.20117 8.08594,-0.94726 9.09179,1.96484 -9.31445,1.61719 -4.65234,-0.63477 3.70117,0.79883 -6.91211,1.20117 8.08594,-0.94726 9.09179,1.96484 -9.31445,1.61719 -4.65234,-0.63477 3.70117,0.79883 -6.91211,1.20117 8.08594,-0.94726 9.09179,1.96484 -9.31445,1.61719 -4.65234,-0.63477 3.70117,0.79883 -6.91211,1.20117 8.08594,-0.94726 9.09179,1.96484 -9.31445,1.61719 -4.65234,-0.63477 3.70117,0.79883 -6.91211,1.20117 8.08594,-0.94726 9.09179,1.96484 -9.31445,1.61719 -4.65234,-0.63477 3.70117,0.79883 -6.91211,1.20117 8.08594,-0.94726 9.09179,1.96484 -9.31445,1.61719 -4.65234,-0.63477 3.70117,0.79883 -6.91211,1.20117 8.08594,-0.94726 9.09179,1.96484 -9.31445,1.61719 -4.65234,-0.63477 3.70117,0.79883 -6.91211,1.20117 8.08594,-0.94726 9.09179,1.96484 -9.31445,1.61719 -4.65234,-0.63477 3.70117,0.79883 -6.91211,1.20117 8.08594,-0.94726 9.09179,1.96484 -9.31445,1.61719 -4.65234,-0.63477 3.70117,0.79883 -6.91211,1.20117 8.08594,-0.94726 9.09179,1.96484 -9.31445,1.61719 -4.65234,-0.63477 3.70117,0.79883 -6.91211,1.20117 8.08594,-0.94726 9.09179,1.96484 -9.31445,1.61719 -4.65234,-0.63477 3.70117,0.79883 -6.91211,1.20117 8.08594,-0.94726 9.09179,1.96484 -9.31445,1.61719 -4.65234,-0.63477 3.70117,0.79883 -6.91211,1.20117 8.08594,-0.94726 9.09179,1.96484 -9.31445,1.61719 -4.65234,-0.63477 3.70117,0.79883 -6.91211,1.20117 8.08594,-0.94726 9.09179,1.96484 -17.17773,2.98242 z"
       style="opacity:0.93999999;fill:#374548;fill-opacity:1;stroke:none;stroke-width:1;stroke-miterlimit:4;stroke-dasharray:none;stroke-dashoffset:0;stroke-opacity:1"
       inkscape:connector-curvature="0" />
    <rect
       style="opacity:0.94;fill:#37c8ab;fill-opacity:1;stroke:#374548;stroke-width:2.00000007;stroke-miterlimit:4;stroke-dasharray:4.00000014, 2.00000007000000002;stroke-dashoffset:0;stroke-opacity:1"
       id="rect4386"
       width="256.54822"
       height="112.65812"
       x="334.53064"
       y="681.38031" />
    <g
       style="font-style:normal;font-weight:normal;font-size:40px;line-height:125%;font-family:sans-serif;letter-spacing:0px;word-spacing:0px;fill:#f9f9f9;fill-opacity:1;stroke:#374548;stroke-width:2;stroke-linecap:butt;stroke-linejoin:miter;stroke-miterlimit:4;stroke-dasharray:none;stroke-opacity:1"
       id="text3369">
      <path
         d="m 366.95215,721.77972 3.94531,0 0,29.16016 -3.94531,0 0,-29.16016 z"
         style=""
         id="path4174" />
      <path
         d="m 378.74902,721.77972 5.3125,0 12.92969,24.39454 0,-24.39454 3.82813,0 0,29.16016 -5.3125,0 -12.92969,-24.39453 0,24.39453 -3.82813,0 0,-29.16016 z"
         style=""
         id="path4176" />
      <path
         d="m 408.6709,721.77972 3.94531,0 0,12.32422 13.08594,-12.32422 5.07812,0 -14.47265,13.59375 15.50781,15.56641 -5.19531,0 -14.00391,-14.04297 0,14.04297 -3.94531,0 0,-29.16016 z"
         style=""
         id="path4178" />
      <path
         d="m 452.40137,722.73676 0,3.84765 q -2.2461,-1.07422 -4.23828,-1.60156 -1.99219,-0.52734 -3.84766,-0.52734 -3.22266,0 -4.98047,1.25 -1.73828,1.25 -1.73828,3.55468 0,1.9336 1.15234,2.92969 1.17188,0.97656 4.41407,1.58203 l 2.38281,0.48828 q 4.41406,0.83985 6.5039,2.96875 2.10938,2.10938 2.10938,5.66407 0,4.23828 -2.85156,6.42578 -2.83203,2.1875 -8.32032,2.1875 -2.07031,0 -4.41406,-0.46875 -2.32422,-0.46875 -4.82422,-1.38672 l 0,-4.0625 q 2.40235,1.34765 4.70703,2.03125 2.30469,0.68359 4.53125,0.68359 3.37891,0 5.21485,-1.32812 1.83594,-1.32813 1.83594,-3.78907 0,-2.14843 -1.32813,-3.35937 -1.30859,-1.21094 -4.31641,-1.81641 l -2.40234,-0.46875 q -4.41406,-0.8789 -6.38672,-2.7539 -1.97265,-1.875 -1.97265,-5.21485 0,-3.86718 2.71484,-6.09375 2.73437,-2.22656 7.51953,-2.22656 2.05078,0 4.17969,0.37109 2.1289,0.3711 4.35547,1.11329 z"
         style=""
         id="path4180" />
      <path
         d="m 482.14746,724.02582 0,4.16015 q -1.99219,-1.85546 -4.25781,-2.77343 -2.2461,-0.91797 -4.78516,-0.91797 -5,0 -7.65625,3.0664 -2.65625,3.04688 -2.65625,8.82813 0,5.76172 2.65625,8.82812 2.65625,3.04688 7.65625,3.04688 2.53906,0 4.78516,-0.91797 2.26562,-0.91797 4.25781,-2.77344 l 0,4.1211 q -2.07031,1.40625 -4.39453,2.10937 -2.30469,0.70313 -4.88281,0.70313 -6.6211,0 -10.42969,-4.04297 -3.80859,-4.0625 -3.80859,-11.07422 0,-7.03125 3.80859,-11.07422 3.80859,-4.0625 10.42969,-4.0625 2.61718,0 4.92187,0.70313 2.32422,0.68359 4.35547,2.07031 z"
         style=""
         id="path4182" />
      <path
         d="m 498.02637,725.66644 -5.35157,14.51172 10.72266,0 -5.37109,-14.51172 z m -2.22657,-3.88672 4.47266,0 11.11328,29.16016 -4.10156,0 -2.65625,-7.48047 -13.14453,0 -2.65625,7.48047 -4.16016,0 11.13281,-29.16016 z"
         style=""
         id="path4184" />
      <path
         d="m 519.56934,725.02191 0,10.95703 4.96093,0 q 2.75391,0 4.25782,-1.42578 1.5039,-1.42578 1.5039,-4.0625 0,-2.61719 -1.5039,-4.04297 -1.50391,-1.42578 -4.25782,-1.42578 l -4.96093,0 z m -3.94532,-3.24219 8.90625,0 q 4.90235,0 7.40235,2.22657 2.51953,2.20703 2.51953,6.48437 0,4.31641 -2.51953,6.52344 -2.5,2.20703 -7.40235,2.20703 l -4.96093,0 0,11.71875 -3.94532,0 0,-29.16016 z"
         style=""
         id="path4186" />
      <path
         d="m 539.76465,721.77972 18.4375,0 0,3.32032 -14.49219,0 0,8.63281 13.88672,0 0,3.32031 -13.88672,0 0,10.56641 14.84375,0 0,3.32031 -18.78906,0 0,-29.16016 z"
         style=""
         id="path4188" />
    </g>
  </g>
</svg>
