<?xml version="1.0" encoding="UTF-8" standalone="no"?>
<!-- Created with Inkscape (http://www.inkscape.org/) -->

<svg
   xmlns:dc="http://purl.org/dc/elements/1.1/"
   xmlns:cc="http://creativecommons.org/ns#"
   xmlns:rdf="http://www.w3.org/1999/02/22-rdf-syntax-ns#"
   xmlns:svg="http://www.w3.org/2000/svg"
   xmlns="http://www.w3.org/2000/svg"
   xmlns:sodipodi="http://sodipodi.sourceforge.net/DTD/sodipodi-0.dtd"
   xmlns:inkscape="http://www.inkscape.org/namespaces/inkscape"
   width="900"
   height="600"
   viewBox="0 0 900.00005 600.00002"
   id="svg2"
   version="1.1"
   inkscape:version="0.91 r13725"
   sodipodi:docname="practica1.svg"
   inkscape:export-filename="/home/costy/Documents/css-avanzado/css-avanzado/inkscape/practica1.svg.png"
   inkscape:export-xdpi="90"
   inkscape:export-ydpi="90">
  <defs
     id="defs4">
    <inkscape:path-effect
       effect="bend_path"
       id="path-effect3486"
       is_visible="true"
       bendpath="m 252.36885,440.05075 c 127.63278,-26.95508 252.6702,-22.76592 376.15956,0"
       prop_scale="1"
       scale_y_rel="false"
       vertical="false"
       bendpath-nodetypes="cc" />
    <inkscape:path-effect
       effect="bend_path"
       id="path-effect3449"
       is_visible="true"
       bendpath="m 252.88755,461.62164 376.15956,0"
       prop_scale="1"
       scale_y_rel="false"
       vertical="false" />
    <inkscape:path-effect
       effect="bend_path"
       id="path-effect3397"
       is_visible="true"
       bendpath="m 250.81276,440.48676 376.67826,0"
       prop_scale="1"
       scale_y_rel="false"
       vertical="false" />
    <inkscape:path-effect
       effect="bend_path"
       id="path-effect4383"
       is_visible="true"
       bendpath="m 399.52665,661.45443 c 39.03385,-17.63378 80.04642,-20.42707 124.15505,0"
       prop_scale="1"
       scale_y_rel="false"
       vertical="false"
       bendpath-nodetypes="cc" />
  </defs>
  <sodipodi:namedview
     id="base"
     pagecolor="#ffffff"
     bordercolor="#666666"
     borderopacity="1.0"
     inkscape:pageopacity="0.0"
     inkscape:pageshadow="2"
     inkscape:zoom="1.9279064"
     inkscape:cx="507.72961"
     inkscape:cy="336.63013"
     inkscape:document-units="px"
     inkscape:current-layer="layer1"
     showgrid="false"
     units="px"
     width="900mm"
     fit-margin-top="0"
     fit-margin-left="0"
     fit-margin-right="0"
     fit-margin-bottom="0"
     inkscape:window-width="1215"
     inkscape:window-height="776"
     inkscape:window-x="65"
     inkscape:window-y="24"
     inkscape:window-maximized="1"
     showguides="false" />
  <metadata
     id="metadata7">
    <rdf:RDF>
      <cc:Work
         rdf:about="">
        <dc:format>image/svg+xml</dc:format>
        <dc:type
           rdf:resource="http://purl.org/dc/dcmitype/StillImage" />
        <dc:title></dc:title>
      </cc:Work>
    </rdf:RDF>
  </metadata>
  <g
     inkscape:label="Layer 1"
     inkscape:groupmode="layer"
     id="layer1"
     transform="translate(0,-452.36173)">
    <path
       sodipodi:type="star"
       style="fill:#008080"
       id="path3336"
       sodipodi:sides="13"
       sodipodi:cx="446.7897"
       sodipodi:cy="759.55701"
       sodipodi:r1="407.27396"
       sodipodi:r2="325.81918"
       sodipodi:arg1="0.73068609"
       sodipodi:arg2="0.97234706"
       inkscape:flatsided="false"
       inkscape:rounded="0"
       inkscape:randomized="0"
       d="m 750.09342,1031.3638 -119.7496,-2.6117 -41.30693,112.4301 -104.81931,-57.9629 -88.82433,80.3556 L 329.51707,1063.5394 213.52391,1093.412 201.6823,974.2207 85.092958,946.76689 129.99868,835.72518 39.522371,757.23427 130.88807,679.78045 87.251821,568.23376 204.14672,542.11156 217.34707,423.0631 l 115.64488,31.19371 67.01291,-99.27767 87.90201,81.36351 105.47362,-56.76356 40.02186,112.89392 119.77159,-1.2456 -17.02682,118.56168 106.63134,54.55771 -70.17487,97.0684 69.06313,97.8625 -107.24669,53.33792 z"
       inkscape:transform-center-x="-0.1278609"
       inkscape:transform-center-y="-2.6060145"
       transform="matrix(0,0.4979732,-0.49468477,0,836.00443,496.43958)" />
    <path
       style="opacity:0;fill:#008080"
       d="m 205.2372,492.25974 c -0.35896,-1.60401 -5.17845,-48.06197 -10.70999,-103.23992 -5.53154,-55.17794 -10.41265,-101.24939 -10.8469,-102.38098 -0.63496,-1.65461 -16.05574,11.66874 -78.75756,68.04551 -42.882405,38.55663 -78.196511,69.87446 -78.475795,69.59517 -0.279285,-0.27928 17.049005,-44.2825 38.507311,-97.78493 21.458306,-53.50243 38.868034,-97.42422 38.688274,-97.60398 -0.17975,-0.17975 -45.854769,11.26326 -101.5000235,25.42891 -55.6452645,14.16564 -101.6272005,25.59567 -102.1820865,25.40004 -0.55488,-0.19563 34.948574,-31.0143 78.896574,-68.48592 C 22.805,173.76202 58.344088,142.72341 57.832753,142.25897 57.321418,141.79452 10.877955,130.46182 -45.37494,117.07518 -101.62784,103.68854 -147.56085,92.648441 -147.44831,92.54162 -147.33576,92.434811 -101.57313,82.038224 -45.753585,69.438113 10.065964,56.838002 56.67152,46.157512 57.81431,45.703688 59.447344,45.055201 42.895337,30.051093 -19.510207,-24.389614 -63.181478,-62.487115 -98.7002,-93.870125 -98.440695,-94.129625 -98.181192,-94.389136 -52.450392,-82.463059 3.1833032,-67.62725 58.816997,-52.79144 104.5579,-40.875466 104.82975,-41.147319 105.1016,-41.419173 88.255749,-85.642347 67.394519,-139.42106 46.533301,-193.19977 29.652887,-237.38839 29.882487,-237.618 c 0.229613,-0.22961 35.263443,31.6476 77.852953,70.83825 70.08006,64.48727 77.51165,70.998834 78.23722,68.551558 0.44094,-1.487273 5.92646,-48.374678 12.19002,-104.194228 6.26357,-55.81955 11.68914,-101.85077 12.05682,-102.2916 0.36769,-0.44082 14.01735,36.56806 30.33259,82.24197 41.17867,115.2782 41.12268,115.12447 41.9355,115.11698 0.39968,-0.004 27.23661,-39.06638 59.63761,-86.80599 40.32227,-59.41081 58.99574,-86.00333 59.17974,-84.27674 0.14783,1.38741 -6.1959,48.1931 -14.09722,104.01265 -7.90131,55.81955 -13.94733,101.658605 -13.4356,101.864583 0.51172,0.205967 42.55199,-21.894515 93.4228,-49.112183 50.8708,-27.21767 92.64626,-49.36764 92.83435,-49.22216 0.18809,0.14549 -27.24048,38.64408 -60.95239,85.552437 -33.71189,46.908345 -61.29435,85.76323108 -61.29435,86.3441977 0,0.6129651 11.13838,0.8667603 26.53907,0.6047059 14.59649,-0.2483707 62.49807,-0.65886897 106.44794,-0.91220923 L 650.6784,0.23359635 555.31272,47.934113 c -52.45113,26.235293 -95.36569,47.894736 -95.36569,48.132106 0,0.237371 42.2024,22.153351 93.78312,48.702161 l 93.78312,48.27058 -6.5833,0.36401 c -3.62082,0.20021 -49.10415,-0.45827 -101.07408,-1.46327 -113.69103,-2.19858 -103.62414,-2.16348 -102.9228,-0.35893 0.3117,0.80201 27.41114,39.72728 60.22099,86.50062 32.80984,46.77333 59.47386,85.22283 59.25337,85.44332 -0.22051,0.22049 -41.8311,-22.36367 -92.46803,-50.18703 -55.99311,-30.76641 -92.20414,-50.01715 -92.41682,-49.13122 -0.28635,1.19285 23.88727,192.26972 26.04751,205.88878 0.47056,2.96653 -15.34742,-19.99953 -57.84971,-83.9918 -32.17353,-48.4411 -58.70551,-88.29346 -58.95992,-88.5608 -0.25441,-0.26733 -0.73095,-0.21768 -1.05897,0.11036 -0.32801,0.32802 -16.65156,43.85502 -36.27454,96.72667 -19.62298,52.87164 -36.09641,97.18016 -36.60763,98.46337 -0.86956,2.1827 -0.97155,2.1451 -1.58214,-0.58328 l 0,-2e-5 z"
       id="path3433"
       inkscape:connector-curvature="0"
       transform="translate(0,452.36173)" />
    <path
       style="opacity:0;fill:#008080"
       d="m 205.2372,492.25974 c -0.35896,-1.60401 -5.17845,-48.06197 -10.70999,-103.23992 -5.53154,-55.17794 -10.41265,-101.24939 -10.8469,-102.38098 -0.63496,-1.65461 -16.05574,11.66874 -78.75756,68.04551 -42.882405,38.55663 -78.196511,69.87446 -78.475795,69.59517 -0.279285,-0.27928 17.049005,-44.2825 38.507311,-97.78493 21.458306,-53.50243 38.868034,-97.42422 38.688274,-97.60398 -0.17975,-0.17975 -45.854769,11.26326 -101.5000235,25.42891 -55.6452645,14.16564 -101.6272005,25.59567 -102.1820865,25.40004 -0.55488,-0.19563 34.948574,-31.0143 78.896574,-68.48592 C 22.805,173.76202 58.344088,142.72341 57.832753,142.25897 57.321418,141.79452 10.877955,130.46182 -45.37494,117.07518 -101.62784,103.68854 -147.56085,92.648441 -147.44831,92.54162 -147.33576,92.434811 -101.57313,82.038224 -45.753585,69.438113 10.065964,56.838002 56.67152,46.157512 57.81431,45.703688 59.447344,45.055201 42.895337,30.051093 -19.510207,-24.389614 -63.181478,-62.487115 -98.7002,-93.870125 -98.440695,-94.129625 -98.181192,-94.389136 -52.450392,-82.463059 3.1833032,-67.62725 58.816997,-52.79144 104.5579,-40.875466 104.82975,-41.147319 105.1016,-41.419173 88.255749,-85.642347 67.394519,-139.42106 46.533301,-193.19977 29.652887,-237.38839 29.882487,-237.618 c 0.229613,-0.22961 35.263443,31.6476 77.852953,70.83825 70.08006,64.48727 77.51165,70.998834 78.23722,68.551558 0.44094,-1.487273 5.92646,-48.374678 12.19002,-104.194228 6.26357,-55.81955 11.68914,-101.85077 12.05682,-102.2916 0.36769,-0.44082 14.01735,36.56806 30.33259,82.24197 41.17867,115.2782 41.12268,115.12447 41.9355,115.11698 0.39968,-0.004 27.23661,-39.06638 59.63761,-86.80599 40.32227,-59.41081 58.99574,-86.00333 59.17974,-84.27674 0.14783,1.38741 -6.1959,48.1931 -14.09722,104.01265 -7.90131,55.81955 -13.94733,101.658605 -13.4356,101.864583 0.51172,0.205967 42.55199,-21.894515 93.4228,-49.112183 50.8708,-27.21767 92.64626,-49.36764 92.83435,-49.22216 0.18809,0.14549 -27.24048,38.64408 -60.95239,85.552437 -33.71189,46.908345 -61.29435,85.76323108 -61.29435,86.3441977 0,0.6129651 11.13838,0.8667603 26.53907,0.6047059 14.59649,-0.2483707 62.49807,-0.65886897 106.44794,-0.91220923 L 650.6784,0.23359635 555.31272,47.934113 c -52.45113,26.235293 -95.36569,47.894736 -95.36569,48.132106 0,0.237371 42.2024,22.153351 93.78312,48.702161 l 93.78312,48.27058 -6.5833,0.36401 c -3.62082,0.20021 -49.10415,-0.45827 -101.07408,-1.46327 -113.69103,-2.19858 -103.62414,-2.16348 -102.9228,-0.35893 0.3117,0.80201 27.41114,39.72728 60.22099,86.50062 32.80984,46.77333 59.47386,85.22283 59.25337,85.44332 -0.22051,0.22049 -41.8311,-22.36367 -92.46803,-50.18703 -55.99311,-30.76641 -92.20414,-50.01715 -92.41682,-49.13122 -0.28635,1.19285 23.88727,192.26972 26.04751,205.88878 0.47056,2.96653 -15.34742,-19.99953 -57.84971,-83.9918 -32.17353,-48.4411 -58.70551,-88.29346 -58.95992,-88.5608 -0.25441,-0.26733 -0.73095,-0.21768 -1.05897,0.11036 -0.32801,0.32802 -16.65156,43.85502 -36.27454,96.72667 -19.62298,52.87164 -36.09641,97.18016 -36.60763,98.46337 -0.86956,2.1827 -0.97155,2.1451 -1.58214,-0.58328 l 0,-2e-5 z"
       id="path3435"
       inkscape:connector-curvature="0"
       transform="translate(0,452.36173)" />
    <path
       style="opacity:0;fill:#008080"
       d="m 205.2372,492.25974 c -0.35896,-1.60401 -5.17845,-48.06197 -10.70999,-103.23992 -5.53154,-55.17794 -10.41265,-101.24939 -10.8469,-102.38098 -0.63496,-1.65461 -16.05574,11.66874 -78.75756,68.04551 -42.882405,38.55663 -78.196511,69.87446 -78.475795,69.59517 -0.279285,-0.27928 17.049005,-44.2825 38.507311,-97.78493 21.458306,-53.50243 38.868034,-97.42422 38.688274,-97.60398 -0.17975,-0.17975 -45.854769,11.26326 -101.5000235,25.42891 -55.6452645,14.16564 -101.6272005,25.59567 -102.1820865,25.40004 -0.55488,-0.19563 34.948574,-31.0143 78.896574,-68.48592 C 22.805,173.76202 58.344088,142.72341 57.832753,142.25897 57.321418,141.79452 10.877955,130.46182 -45.37494,117.07518 -101.62784,103.68854 -147.56085,92.648441 -147.44831,92.54162 -147.33576,92.434811 -101.57313,82.038224 -45.753585,69.438113 10.065964,56.838002 56.67152,46.157512 57.81431,45.703688 59.447344,45.055201 42.895337,30.051093 -19.510207,-24.389614 -63.181478,-62.487115 -98.7002,-93.870125 -98.440695,-94.129625 -98.181192,-94.389136 -52.450392,-82.463059 3.1833032,-67.62725 58.816997,-52.79144 104.5579,-40.875466 104.82975,-41.147319 105.1016,-41.419173 88.255749,-85.642347 67.394519,-139.42106 46.533301,-193.19977 29.652887,-237.38839 29.882487,-237.618 c 0.229613,-0.22961 35.263443,31.6476 77.852953,70.83825 70.08006,64.48727 77.51165,70.998834 78.23722,68.551558 0.44094,-1.487273 5.92646,-48.374678 12.19002,-104.194228 6.26357,-55.81955 11.68914,-101.85077 12.05682,-102.2916 0.36769,-0.44082 14.01735,36.56806 30.33259,82.24197 41.17867,115.2782 41.12268,115.12447 41.9355,115.11698 0.39968,-0.004 27.23661,-39.06638 59.63761,-86.80599 40.32227,-59.41081 58.99574,-86.00333 59.17974,-84.27674 0.14783,1.38741 -6.1959,48.1931 -14.09722,104.01265 -7.90131,55.81955 -13.94733,101.658605 -13.4356,101.864583 0.51172,0.205967 42.55199,-21.894515 93.4228,-49.112183 50.8708,-27.21767 92.64626,-49.36764 92.83435,-49.22216 0.18809,0.14549 -27.24048,38.64408 -60.95239,85.552437 -33.71189,46.908345 -61.29435,85.76323108 -61.29435,86.3441977 0,0.6129651 11.13838,0.8667603 26.53907,0.6047059 14.59649,-0.2483707 62.49807,-0.65886897 106.44794,-0.91220923 L 650.6784,0.23359635 555.31272,47.934113 c -52.45113,26.235293 -95.36569,47.894736 -95.36569,48.132106 0,0.237371 42.2024,22.153351 93.78312,48.702161 l 93.78312,48.27058 -6.5833,0.36401 c -3.62082,0.20021 -49.10415,-0.45827 -101.07408,-1.46327 -113.69103,-2.19858 -103.62414,-2.16348 -102.9228,-0.35893 0.3117,0.80201 27.41114,39.72728 60.22099,86.50062 32.80984,46.77333 59.47386,85.22283 59.25337,85.44332 -0.22051,0.22049 -41.8311,-22.36367 -92.46803,-50.18703 -55.99311,-30.76641 -92.20414,-50.01715 -92.41682,-49.13122 -0.28635,1.19285 23.88727,192.26972 26.04751,205.88878 0.47056,2.96653 -15.34742,-19.99953 -57.84971,-83.9918 -32.17353,-48.4411 -58.70551,-88.29346 -58.95992,-88.5608 -0.25441,-0.26733 -0.73095,-0.21768 -1.05897,0.11036 -0.32801,0.32802 -16.65156,43.85502 -36.27454,96.72667 -19.62298,52.87164 -36.09641,97.18016 -36.60763,98.46337 -0.86956,2.1827 -0.97155,2.1451 -1.58214,-0.58328 l 0,-2e-5 z"
       id="path3437"
       inkscape:connector-curvature="0"
       transform="translate(0,452.36173)" />
    <path
       sodipodi:type="star"
       style="fill:#374548;fill-opacity:1"
       id="path3451"
       sodipodi:sides="13"
       sodipodi:cx="446.7897"
       sodipodi:cy="759.55701"
       sodipodi:r1="407.27396"
       sodipodi:r2="325.81918"
       sodipodi:arg1="0.73068609"
       sodipodi:arg2="0.97234706"
       inkscape:flatsided="false"
       inkscape:rounded="0"
       inkscape:randomized="0"
       d="m 750.09342,1031.3638 -119.7496,-2.6117 -41.30693,112.4301 -104.81931,-57.9629 -88.82433,80.3556 L 329.51707,1063.5394 213.52391,1093.412 201.6823,974.2207 85.092958,946.76689 129.99868,835.72518 39.522371,757.23427 130.88807,679.78045 87.251821,568.23376 204.14672,542.11156 217.34707,423.0631 l 115.64488,31.19371 67.01291,-99.27767 87.90201,81.36351 105.47362,-56.76356 40.02186,112.89392 119.77159,-1.2456 -17.02682,118.56168 106.63134,54.55771 -70.17487,97.0684 69.06313,97.8625 -107.24669,53.33792 z"
       inkscape:transform-center-x="0.12786474"
       inkscape:transform-center-y="2.60602"
       transform="matrix(0,-0.4979732,0.49468477,0,88.042793,935.18102)" />
    <ellipse
       style="opacity:0;fill:#333333"
       id="path3453"
       cx="419.3757"
       cy="691.31366"
       rx="70.576439"
       ry="83.408524" />
    <ellipse
       style="opacity:0;fill:#cccccc"
       id="path4259"
       cx="112.57234"
       cy="547.82764"
       rx="70.576439"
       ry="68.243332" />
    <ellipse
       style="opacity:0;fill:#cccccc"
       id="path4261"
       cx="95.074051"
       cy="525.66315"
       rx="43.745728"
       ry="42.579174" />
    <ellipse
       style="opacity:0;fill:#cccccc"
       id="path4263"
       cx="167.40031"
       cy="616.6543"
       rx="34.413307"
       ry="53.078152" />
    <ellipse
       style="opacity:0;fill:#cccccc"
       id="path4265"
       cx="118.98838"
       cy="578.74133"
       rx="95.657326"
       ry="113.15562" />
    <path
       style="opacity:0;fill:#cccccc"
       id="path4267"
       sodipodi:type="arc"
       sodipodi:cx="140.56961"
       sodipodi:cy="567.07581"
       sodipodi:rx="92.740944"
       sodipodi:ry="68.826614"
       sodipodi:start="0"
       sodipodi:end="1.3641228"
       d="m 233.31055,567.07581 a 92.740944,68.826614 0 0 1 -73.71,67.36191 l -19.03094,-67.36191 z" />
    <ellipse
       style="opacity:0;fill:#ff2a2a"
       id="path4293"
       cx="421.70883"
       cy="655.15051"
       rx="51.911598"
       ry="39.079517" />
    <ellipse
       style="fill:none;fill-opacity:1;fill-rule:evenodd;stroke:#cccccc;stroke-width:3.0000001;stroke-linecap:butt;stroke-linejoin:miter;stroke-miterlimit:4;stroke-dasharray:none;stroke-opacity:0.94117647"
       id="path3346"
       cx="462.90268"
       cy="713.29596"
       rx="149.31253"
       ry="149.31252" />
    <circle
       style="fill:none;fill-rule:evenodd;stroke:#cccccc;stroke-width:2.00000007;stroke-linecap:butt;stroke-linejoin:miter;stroke-opacity:0.94117647;stroke-miterlimit:4;stroke-dasharray:4.00000014,2.00000007;stroke-dashoffset:0"
       id="path4152"
       cx="462.19156"
       cy="713.0545"
       r="134.37975" />
    <text
       xml:space="preserve"
       style="font-style:normal;font-weight:normal;font-size:40px;line-height:125%;font-family:sans-serif;letter-spacing:0px;word-spacing:0px;fill:#000000;fill-opacity:1;stroke:none;stroke-width:1px;stroke-linecap:butt;stroke-linejoin:miter;stroke-opacity:1"
       x="381.98929"
       y="608.45398"
       id="text4212"
       sodipodi:linespacing="125%"><tspan
         sodipodi:role="line"
         id="tspan4214"
         x="381.98929"
         y="608.45398" /></text>
    <g
       style="font-style:normal;font-weight:normal;font-size:40px;line-height:125%;font-family:sans-serif;letter-spacing:0px;word-spacing:0px;fill:#899ca2;fill-opacity:1;stroke:none;stroke-width:1px;stroke-linecap:butt;stroke-linejoin:miter;stroke-opacity:1"
       id="text4240"
       transform="matrix(-0.92160937,-0.38811874,0.38811879,-0.92160937,613.59697,1545.8844)">
      <path
         d="m 585.47231,717.22645 -0.58589,3.54567 -17.5743,1.64909 16.11275,7.19581 -0.69097,4.18157 -17.57429,1.6491 16.11274,7.19581 -0.58589,3.54567 -20.64936,-9.2124 0.69097,-4.18157 18.4572,-1.72097 -16.91923,-7.58642 0.69097,-4.18157 22.5153,-2.07979 z"
         id="path4342"
         inkscape:connector-curvature="0" />
      <path
         d="m 559.00192,769.70662 -1.58012,-0.77014 7.23928,-14.85317 q -3.4385,-1.41516 -6.06702,-0.48006 -2.61951,0.96121 -4.18546,4.17413 -0.90705,1.86104 -1.29772,3.82166 -0.39923,1.97818 -0.32486,4.14372 l -3.05491,-1.48893 q 0.10976,-2.09753 0.61345,-4.11171 0.50368,-2.01418 1.41929,-3.89277 2.29329,-4.70526 6.37564,-6.1268 4.07378,-1.40397 8.74393,0.87221 4.82816,2.35319 6.38838,6.32931 1.56922,4.00223 -0.58716,8.42658 -1.9339,3.96787 -5.61819,5.01849 -3.67529,1.07674 -8.06453,-1.06252 z m 2.52258,-2.7684 q 2.66821,1.25701 4.95857,0.56992 2.28181,-0.66954 3.44557,-3.05728 1.31779,-2.70377 0.58614,-5.08103 -0.7402,-2.3597 -3.3944,-3.95752 l -5.59588,11.52591 z"
         id="path4344"
         inkscape:connector-curvature="0" />
      <path
         d="m 569.15236,787.18185 -2.12644,2.89712 -24.49956,-17.98226 2.12643,-2.89712 24.49957,17.98226 z"
         id="path4346"
         inkscape:connector-curvature="0" />
      <path
         d="m 541.32591,804.11214 -2.34322,-2.40722 q 1.67745,-0.46082 3.06919,-1.24316 1.39136,-0.75472 2.511,-1.84459 2.50519,-2.43859 2.33767,-5.38279 -0.15389,-2.9302 -2.94668,-5.79927 -2.79279,-2.86907 -5.73141,-3.11584 -2.92499,-0.23278 -5.43018,2.20581 -1.11964,1.08987 -1.9252,2.4464 -0.80593,1.38414 -1.31177,3.04857 l -2.31597,-2.37923 q 0.58721,-1.55284 1.50361,-2.93549 0.90241,-1.36904 2.20399,-2.63601 3.54085,-3.44672 7.7923,-3.25132 4.25144,0.19539 7.92975,3.97417 3.73281,3.83476 3.77236,8.07556 0.0255,4.25442 -3.64126,7.82374 -1.18962,1.15799 -2.56847,2.00956 -1.36523,0.86558 -2.90571,1.41111 z"
         id="path4348"
         inkscape:connector-curvature="0" />
      <path
         d="m 524.27711,813.87251 q 2.48087,-1.48359 2.75964,-4.29013 0.2888,-2.78978 -1.72606,-6.15907 -2.01487,-3.36928 -4.6025,-4.46168 -2.59437,-1.06562 -5.092,0.42799 -2.4641,1.47356 -2.74287,4.2801 -0.27878,2.80655 1.72606,6.15907 1.99482,3.33576 4.59921,4.41813 2.61442,1.09915 5.07852,-0.37441 z m 1.56378,2.61496 q -4.02302,2.40582 -7.88328,1.16417 -3.86025,-1.24165 -6.62693,-5.86813 -2.75666,-4.60972 -2.03399,-8.61476 0.7327,-3.98829 4.75573,-6.3941 4.03978,-2.41583 7.90004,-1.17418 3.85351,1.26843 6.61017,5.87815 2.76669,4.62648 2.05075,8.60474 -0.7327,3.98828 -4.77249,6.40411 z"
         id="path4350"
         inkscape:connector-curvature="0" />
      <path
         d="m 487.57174,826.47076 q -0.79046,2.65647 -2.37099,4.18796 -1.58053,1.53148 -4.05918,2.08203 -3.33666,0.74112 -5.66888,-1.20175 -2.32799,-1.9238 -3.2851,-6.23285 l -2.86283,-12.88901 3.52732,-0.78347 2.83742,12.77461 q 0.68183,3.06972 2.09896,4.31552 1.41712,1.2458 3.64791,0.75031 2.72652,-0.6056 3.90673,-2.76843 1.1802,-2.16282 0.48567,-5.28975 l -2.68074,-12.06915 3.52732,-0.78346 2.83743,12.77461 q 0.68606,3.08879 2.09895,4.31552 1.41712,1.2458 3.68605,0.74184 2.68839,-0.59713 3.86436,-2.77902 1.1802,-2.16283 0.4899,-5.27069 l -2.68073,-12.06915 3.52732,-0.78347 4.74316,21.35458 -3.52732,0.78347 -0.73688,-3.31758 q -0.765,2.23066 -2.23534,3.5376 -1.47035,1.30694 -3.77741,1.81937 -2.32612,0.51666 -4.20935,-0.30549 -1.90229,-0.81792 -3.18375,-2.89415 z"
         id="path4352"
         inkscape:connector-curvature="0" />
      <path
         d="m 442.1037,821.55972 0.17495,-1.74908 16.4414,1.64452 q 0.13612,-3.71584 -1.65179,-5.85754 -1.80928,-2.12421 -5.36575,-2.47995 -2.06004,-0.20605 -4.03457,0.1068 -1.99397,0.3109 -3.99961,1.13099 l 0.33824,-3.38157 q 2.00563,-0.62379 4.06956,-0.84918 2.06393,-0.22539 4.1434,-0.0174 5.20838,0.52096 7.95632,3.8579 2.7285,3.33499 2.21143,8.50451 -0.53457,5.34442 -3.72381,8.18565 -3.21061,2.85871 -8.10805,2.36885 -4.39215,-0.43931 -6.65423,-3.53137 -2.28346,-3.07456 -1.79749,-7.93313 z m 3.47094,1.40713 q -0.25466,2.93846 1.18344,4.84889 1.41866,1.90848 4.06172,2.17285 2.99288,0.29936 4.96938,-1.21065 1.95707,-1.51194 2.53629,-4.55534 l -12.75083,-1.25575 z"
         id="path4354"
         inkscape:connector-curvature="0" />
      <path
         d="m 410.53752,827.9356 2.59963,-5.64071 -6.72273,-3.09831 1.16902,-2.53654 6.72273,3.0983 4.97037,-10.78476 q 1.11997,-2.43012 0.78249,-3.42437 -0.35523,-1.00244 -2.39511,-1.94256 l -3.3525,-1.54506 1.25894,-2.73167 3.3525,1.54507 q 3.77822,1.74126 4.56918,3.80474 0.78279,2.08122 -0.93395,5.80622 l -4.97037,10.78476 2.39464,1.10362 -1.16902,2.53654 -2.39464,-1.10361 -2.59964,5.64071 -3.28154,-1.51237 z"
         id="path4356"
         inkscape:connector-curvature="0" />
      <path
         d="m 393.07184,807.60523 q 2.32908,1.71204 5.02433,0.88138 2.68369,-0.81492 5.00883,-3.97807 2.32514,-3.16314 2.32937,-5.9719 -0.0231,-2.8046 -2.3679,-4.52821 -2.31334,-1.70048 -5.0086,-0.86982 -2.69526,0.83066 -5.00883,3.97807 -2.30201,3.13167 -2.29049,5.952 -6e-5,2.83607 2.31329,4.53655 z m -1.80459,2.45497 q -3.77689,-2.77628 -4.12828,-6.81606 -0.35138,-4.03977 2.84135,-8.3832 3.18116,-4.32768 7.15329,-5.2136 3.96056,-0.87018 7.73745,1.90611 3.79262,2.78786 4.14401,6.82763 0.32408,4.04395 -2.85708,8.37163 -3.19273,4.34342 -7.13756,5.22517 -3.96056,0.87018 -7.75318,-1.91768 z"
         id="path4358"
         inkscape:connector-curvature="0" />
    </g>
    <path
       style="opacity:0.46700003;fill:#53676c;fill-opacity:1;stroke:#cccccc;stroke-width:1.35904396;stroke-miterlimit:4;stroke-dasharray:2.71808799, 1.35904399;stroke-dashoffset:0;stroke-opacity:0.94117647"
       d="M 460.16406 168.87891 L 453.38672 182.03516 L 439.06055 185.54883 L 449.53125 196.52539 L 448.82422 211.50977 L 462.07422 205.13672 L 475.96289 210.88477 L 473.68164 195.96875 L 482.9707 184.53711 L 468.31055 181.68945 L 460.16406 168.87891 z M 514.53906 190.95117 C 512.12403 192.9996 509.77107 195.09511 507.48438 197.23242 C 504.22685 196.93713 500.97949 196.74312 497.75195 196.6543 C 499.39609 199.44831 500.92789 202.26855 502.35156 205.10547 C 501.2858 208.04352 500.2299 210.98406 499.18164 213.92773 C 502.06614 213.42651 505.00489 213.01517 507.98828 212.69531 C 510.22282 214.79104 512.36951 216.93834 514.43164 219.125 C 515.24407 216.09244 516.03072 213.04938 516.79102 209.99805 C 519.5191 208.5592 522.31313 207.18742 525.16602 205.88672 C 522.49174 203.99295 519.74517 202.16606 516.92969 200.41406 C 516.22515 197.26339 515.43002 194.10687 514.53906 190.95117 z M 407.62891 191.41992 C 407.07998 194.53507 406.6058 197.64585 406.20312 200.74805 C 403.50933 202.58722 400.88592 204.48923 398.33203 206.44727 C 401.36007 207.58627 404.33159 208.80179 407.23828 210.08984 C 408.27747 213.03776 409.32474 215.98388 410.37891 218.92578 C 412.32012 216.69873 414.33928 214.50353 416.44141 212.35156 C 419.50728 212.53797 422.53356 212.8166 425.50977 213.1875 C 424.20166 210.33349 422.86764 207.48876 421.50586 204.6543 C 422.68719 201.80581 423.9618 198.96812 425.33594 196.14648 C 422.06284 196.39181 418.78053 196.74002 415.49609 197.1875 C 412.94357 195.2112 410.31864 193.28756 407.62891 191.41992 z "
       transform="translate(0,452.36173)"
       id="path4360" />
    <g
       id="g3467"
       inkscape:path-effect="#path-effect3486"
       transform="translate(22.303988,310.18103)">
      <path
         sodipodi:nodetypes="cccccc"
         inkscape:connector-curvature="0"
         id="rect4406"
         d="m 534.11005,385.04391 c 34.24868,3.31093 68.25435,8.20144 101.90075,14.42003 -17.06573,16.12582 -33.59715,32.58767 -49.51571,49.36951 10.2778,20.72192 19.88752,41.57123 28.89226,62.49847 -30.71711,-5.63529 -61.50569,-10.07554 -92.24948,-13.06926 z"
         style="opacity:0.93999999;fill:#37c8ab;fill-opacity:1;stroke:#374548;stroke-width:1.24687052;stroke-miterlimit:4;stroke-dasharray:2.49374122, 1.24687061;stroke-dashoffset:0;stroke-opacity:1"
         inkscape:original-d="m 529.77527,398.78 98.75314,0 -40,56.87656 40,56.87656 -98.75314,0 z" />
      <path
         sodipodi:nodetypes="cccccc"
         inkscape:connector-curvature="0"
         id="rect4388"
         d="m 242.87628,395.10328 c 34.20238,-7.21202 68.7635,-12.3923 103.46497,-15.62054 l 10.52106,113.26452 c -30.46461,2.82269 -60.69765,7.34747 -90.48072,13.65405 8.14609,-21.10415 17.26103,-42.09935 27.30785,-62.92938 -16.10685,-16.59506 -33.04192,-32.74021 -50.81316,-48.36865 z"
         style="opacity:0.93999999;fill:#37c8ab;fill-opacity:1;stroke:#374548;stroke-width:1.24687028;stroke-miterlimit:4;stroke-dasharray:2.49374063, 1.24687032;stroke-dashoffset:0;stroke-opacity:1"
         inkscape:original-d="m 252.36885,394.11184 98.75314,0 0,113.75303 -98.75314,0 40,-56.87652 z" />
      <path
         inkscape:connector-curvature="0"
         id="path4440"
         d="m 344.17449,381.1603 c -7.9325,1.65381 -15.83408,3.40983 -23.70167,5.26811 -12.95132,1.66658 -25.87083,3.61045 -38.74681,5.83561 12.79689,-2.00945 25.62803,-3.74105 38.48222,-5.19926 4.80354,0.0333 9.60128,0.10472 14.39276,0.21393 -4.55915,1.00586 -9.10743,2.04585 -13.64424,3.12 -12.89467,1.65954 -25.75708,3.59512 -38.5755,5.81075 12.73983,-2 25.51436,-3.72338 38.31238,-5.17459 4.78285,0.0358 9.55998,0.10972 14.33089,0.22117 -4.53907,1.00367 -9.06722,2.04131 -13.58385,3.11295 -12.83802,1.6525 -25.64332,3.5798 -38.40419,5.7859 12.68278,-1.99056 25.4007,-3.70572 38.14255,-5.14993 4.76217,0.0384 9.51867,0.11471 14.26902,0.22841 -4.519,1.00147 -9.02702,2.03677 -13.52345,3.10589 -12.78137,1.64546 -25.52957,3.56448 -38.23288,5.76105 12.62572,-1.98111 25.28702,-3.68804 37.97271,-5.12525 4.74148,0.041 9.47736,0.11969 14.20715,0.23564 -4.49893,0.99928 -8.98681,2.03222 -13.46306,3.09884 -12.72472,1.63842 -25.41581,3.54915 -38.06156,5.7362 12.56866,-1.97167 25.17335,-3.67038 37.80287,-5.10059 4.7208,0.0436 9.43605,0.12469 14.14527,0.24289 -4.47885,0.99708 -8.9466,2.02767 -13.40265,3.09178 -12.66807,1.63137 -25.30206,3.53382 -37.89025,5.71134 12.5116,-1.96222 25.05968,-3.65271 37.63303,-5.07591 4.70011,0.0462 9.39474,0.12967 14.0834,0.25012 -4.45877,0.99489 -8.90639,2.02313 -13.34226,3.08472 -12.61142,1.62434 -25.1883,3.5185 -37.71894,5.6865 12.45455,-1.95278 24.94601,-3.63505 37.4632,-5.05125 4.67943,0.0487 9.35343,0.13467 14.02153,0.25736 -4.4387,0.99269 -8.86619,2.01858 -13.28186,3.07767 -12.55477,1.6173 -25.07455,3.50318 -37.54763,5.66164 12.39748,-1.94333 24.83234,-3.61737 37.29336,-5.02658 4.65874,0.0513 9.31212,0.13966 13.95966,0.2646 -4.41863,0.9905 -8.82598,2.01404 -13.22147,3.07062 -12.49812,1.61025 -24.96079,3.48785 -37.37631,5.63679 12.34042,-1.93389 24.71867,-3.59971 37.12352,-5.00191 4.63806,0.0539 9.27081,0.14465 13.89778,0.27183 -4.39855,0.98831 -8.78577,2.00949 -13.16106,3.06356 -12.44147,1.60322 -24.84704,3.47253 -37.205,5.61194 12.28336,-1.92444 24.60499,-3.58204 36.95368,-4.97724 4.61737,0.0565 9.22951,0.14964 13.83591,0.27907 -4.37847,0.98612 -8.74556,2.00495 -13.10067,3.05651 -12.38481,1.59618 -24.73328,3.4572 -37.03369,5.58709 12.22631,-1.915 24.49133,-3.56438 36.78385,-4.95258 4.59669,0.0591 9.1882,0.15463 13.77404,0.28631 -4.3584,0.98392 -8.70536,2.00041 -13.04027,3.04946 -12.32817,1.58913 -24.61953,3.44188 -36.86238,5.56223 12.16925,-1.90555 24.37765,-3.5467 36.61401,-4.9279 4.576,0.0616 9.14689,0.15962 13.71217,0.29354 -4.33833,0.98173 -8.66515,1.99586 -12.97988,3.04241 -12.27151,1.58209 -24.50577,3.42655 -36.69106,5.53738 12.11219,-1.89611 24.26398,-3.52904 36.44417,-4.90324 4.55532,0.0642 9.10558,0.16461 13.65029,0.30078 -4.31825,0.97954 -8.62494,1.99132 -12.91947,3.03535 -12.21487,1.57505 -24.39202,3.41123 -36.51976,5.51253 12.05514,-1.88666 24.15032,-3.51137 36.27434,-4.87857 4.53463,0.0668 9.06427,0.16961 13.58842,0.30802 -4.29817,0.97735 -8.58473,1.98678 -12.85908,3.0283 -12.15821,1.56801 -24.27826,3.3959 -36.34844,5.48768 11.99808,-1.87722 24.03664,-3.49371 36.1045,-4.8539 4.51395,0.0694 9.02296,0.17459 13.52655,0.31526 -4.2781,0.97514 -8.54453,1.98222 -12.79868,3.02124 -12.10157,1.56097 -24.16451,3.38057 -36.17713,5.46282 11.94101,-1.86777 23.92297,-3.47603 35.93465,-4.82923 4.49327,0.0719 8.98166,0.17958 13.46469,0.3225 -4.25803,0.97295 -8.50432,1.97768 -12.73829,3.01418 -12.04491,1.55393 -24.05075,3.36526 -36.00581,5.43797 11.88395,-1.85832 23.8093,-3.45836 35.76481,-4.80456 4.47259,0.0745 8.94035,0.18458 13.40282,0.32974 -4.23796,0.97076 -8.46412,1.97313 -12.67789,3.00713 -11.98827,1.54689 -23.93701,3.34993 -35.83451,5.41312 11.8269,-1.84888 23.69563,-3.4407 35.59498,-4.77989 4.4519,0.0771 8.89904,0.18956 13.34094,0.33697 -4.21787,0.96857 -8.4239,1.96859 -12.61749,3.00008 -11.93161,1.53985 -23.82325,3.3346 -35.66319,5.38826 11.76984,-1.83943 23.58196,-3.42303 35.42514,-4.75522 4.43122,0.0797 8.85774,0.19456 13.27907,0.34421 -4.1978,0.96637 -8.3837,1.96405 -12.55709,2.99302 -11.87497,1.53281 -23.7095,3.31928 -35.49188,5.36342 11.71278,-1.82999 23.46828,-3.40536 35.2553,-4.73056 4.41054,0.0823 8.81643,0.19955 13.2172,0.35145 -4.17773,0.96418 -8.34349,1.9595 -12.4967,2.98597 -11.81831,1.52577 -23.59574,3.30396 -35.32056,5.33856 11.65572,-1.82054 23.35461,-3.38769 35.08546,-4.70588 4.38985,0.0848 8.77512,0.20454 13.15533,0.35868 -4.15766,0.96199 -8.30329,1.95496 -12.4363,2.97892 -11.76167,1.51872 -23.48199,3.28863 -35.14926,5.31371 11.59867,-1.81111 23.24095,-3.37003 34.91563,-4.68122 4.36917,0.0874 8.73381,0.20953 13.09345,0.36592 -4.13757,0.9598 -8.26307,1.95042 -12.3759,2.97186 -11.70501,1.51169 -23.36823,3.27331 -34.97794,5.28886 11.54161,-1.80166 23.12727,-3.35236 34.74579,-4.65655 4.34848,0.09 8.6925,0.21452 13.03158,0.37316 -4.1175,0.95761 -8.22287,1.94587 -12.3155,2.96481 -11.64836,1.50465 -23.25448,3.25798 -34.80663,5.26401 11.48455,-1.79222 23.0136,-3.33469 34.57595,-4.63188 4.3278,0.0926 8.65119,0.21951 12.96971,0.38039 -4.09743,0.95541 -8.18266,1.94133 -12.25511,2.95776 -11.59171,1.4976 -23.14072,3.24265 -34.63531,5.23915 11.42748,-1.78277 22.89993,-3.31702 34.40611,-4.60721 4.30589,0.0953 8.60745,0.22478 12.90418,0.38802 -4.07613,0.95311 -8.14001,1.93654 -12.19105,2.95032 -11.53506,1.49056 -23.02697,3.22733 -34.46401,5.2143 11.37043,-1.77333 22.78626,-3.29936 34.23628,-4.58255 4.28643,0.0977 8.56857,0.2295 12.84596,0.39488 -4.05727,0.95102 -8.10224,1.93223 -12.13431,2.94364 -11.47841,1.48353 -22.91321,3.21201 -34.29269,5.18945 11.31337,-1.76388 22.67259,-3.28169 34.06644,-4.55787 4.26574,0.1003 8.52727,0.23448 12.78409,0.40211 -4.0372,0.94883 -8.06204,1.92769 -12.07391,2.93659 -11.42176,1.47648 -22.79946,3.19668 -34.12138,5.1646 11.25631,-1.75444 22.55891,-3.26402 33.8966,-4.53321 6.25055,0.15188 12.49208,0.37686 18.72305,0.67354 -4.39511,-0.57628 -8.80126,-1.11688 -13.21797,-1.62118 2.80698,-0.86552 5.62212,-1.7164 8.4452,-2.55263 1.46002,0.0606 2.91947,0.12502 4.37835,0.19341 -1.17027,-0.15187 -2.34131,-0.30123 -3.51313,-0.44805 2.09613,-0.61868 4.19663,-1.22929 6.3014,-1.83182 -2.47671,0.55291 -4.94895,1.11702 -7.41661,1.69233 -2.87981,-0.35756 -5.76425,-0.69984 -8.65319,-1.02666 2.82115,-0.86718 5.65043,-1.71966 8.48763,-2.5574 1.46707,0.0598 2.93356,0.12352 4.39947,0.19119 -1.17586,-0.1513 -2.35251,-0.30007 -3.52993,-0.44629 2.1066,-0.6198 4.21755,-1.23148 6.33276,-1.83503 -2.48891,0.55411 -4.97339,1.11947 -7.45331,1.69611 -2.89358,-0.35609 -5.79182,-0.69681 -8.6946,-1.022 2.83532,-0.86885 5.67875,-1.72292 8.53006,-2.56217 1.47411,0.059 2.94765,0.12203 4.4206,0.18898 -1.18085,-0.15079 -2.36249,-0.29904 -3.54491,-0.44474 2.11646,-0.62084 4.23726,-1.23352 6.36229,-1.83804 -2.50051,0.55525 -4.99661,1.12181 -7.48816,1.69969 0,0 -0.002,1.9e-4 -0.002,1.9e-4 -2.90736,-0.3546 -5.81941,-0.69376 -8.73601,-1.01732 2.84949,-0.87053 5.70706,-1.72619 8.57248,-2.56695 1.48116,0.0583 2.96175,0.12053 4.44172,0.18677 -1.18705,-0.15016 -2.3749,-0.29776 -3.56353,-0.4428 2.12754,-0.62202 4.25939,-1.23584 6.39548,-1.84144 -2.51334,0.55651 -5.02228,1.12439 -7.5267,1.70366 -2.92114,-0.35312 -5.84699,-0.69073 -8.77743,-1.01266 2.86366,-0.8722 5.73537,-1.72945 8.61491,-2.57173 1.48821,0.0575 2.97584,0.11905 4.46285,0.18456 -1.19265,-0.14958 -2.3861,-0.29661 -3.58034,-0.44105 2.13801,-0.62313 4.28032,-1.23801 6.42684,-1.84464 -2.52555,0.55771 -5.04672,1.12685 -7.5634,1.70743 0,0 -0.002,2e-4 -0.002,2e-4 -2.9343,-0.3517 -5.87334,-0.68781 -8.817,-1.00818 2.87783,-0.87387 5.76369,-1.73271 8.65734,-2.57651 1.49526,0.0568 2.98993,0.11755 4.48398,0.18235 -1.19825,-0.14901 -2.3973,-0.29545 -3.59715,-0.4393 2.14848,-0.62424 4.30124,-1.2402 6.4582,-1.84785 -2.53775,0.55891 -5.07116,1.12931 -7.60009,1.71121 -2.94869,-0.35016 -5.90215,-0.68465 -8.86026,-1.00332 2.89201,-0.87554 5.792,-1.73597 8.69977,-2.58128 1.50231,0.056 3.00402,0.11606 4.5051,0.18014 -1.20384,-0.14845 -2.4085,-0.2943 -3.61395,-0.43755 2.15895,-0.62536 4.32217,-1.24238 6.48956,-1.85106 -2.54996,0.56011 -5.0956,1.13177 -7.63678,1.71499 -2.96247,-0.34868 -5.92974,-0.68162 -8.90168,-0.99866 2.90618,-0.87721 5.82031,-1.73924 8.7422,-2.58606 1.50936,0.0553 3.01811,0.11457 4.52623,0.17794 -1.20945,-0.14788 -2.4197,-0.29315 -3.63075,-0.43581 2.16941,-0.62647 4.34308,-1.24456 6.52092,-1.85426 -2.56218,0.5613 -5.12005,1.13422 -7.67349,1.71876 -2.97624,-0.34719 -5.95732,-0.67858 -8.94309,-0.99399 2.92035,-0.87887 5.84863,-1.7425 8.78462,-2.59083 1.51641,0.0545 3.03221,0.11307 4.54736,0.17572 -1.21504,-0.1473 -2.43089,-0.29199 -3.64755,-0.43406 2.17988,-0.62757 4.364,-1.24673 6.55228,-1.85746 -2.57439,0.5625 -5.14449,1.13668 -7.71018,1.72254 -2.99003,-0.34572 -5.98491,-0.67555 -8.98451,-0.98932 2.93452,-0.88055 5.87694,-1.74577 8.82705,-2.59562 1.52346,0.0537 3.0463,0.11159 4.56849,0.17352 -1.22064,-0.14674 -2.4421,-0.29085 -3.66436,-0.43231 2.19035,-0.62869 4.38493,-1.24892 6.58364,-1.86067 -2.5866,0.5637 -5.16893,1.13914 -7.74688,1.72631 -3.0038,-0.34423 -6.01248,-0.67251 -9.02592,-0.98465 2.94869,-0.88222 5.90526,-1.74903 8.86948,-2.60039 1.53051,0.053 3.06039,0.11009 4.58961,0.1713 -1.22623,-0.14616 -2.45329,-0.28969 -3.68116,-0.43056 2.20082,-0.6298 4.40585,-1.25109 6.615,-1.86387 -2.59881,0.5649 -5.19337,1.14159 -7.78357,1.73008 -3.01758,-0.34275 -6.04007,-0.66947 -9.06734,-0.97998 2.96286,-0.88389 5.93357,-1.75229 8.91191,-2.60517 1.53756,0.0522 3.07448,0.1086 4.61074,0.1691 -1.23183,-0.1456 -2.46449,-0.28854 -3.69797,-0.42881 2.21129,-0.63092 4.42678,-1.25328 6.64636,-1.86708 -2.61101,0.5661 -5.21782,1.14405 -7.82026,1.73386 -3.03136,-0.34127 -6.06766,-0.66644 -9.10876,-0.97532 2.97703,-0.88556 5.96188,-1.75555 8.95433,-2.60994 1.54461,0.0515 3.08858,0.1071 4.63187,0.16688 -1.23742,-0.14502 -2.47569,-0.28738 -3.71477,-0.42706 2.22176,-0.63202 4.4477,-1.25546 6.67772,-1.87029 -2.62322,0.56731 -5.24226,1.14652 -7.85696,1.73764 -3.04514,-0.33979 -6.09524,-0.66339 -9.15017,-0.97065 2.99121,-0.88723 5.9902,-1.75881 8.99676,-2.61471 1.55166,0.0507 3.10267,0.10561 4.653,0.16467 -1.24303,-0.14445 -2.48689,-0.28623 -3.73158,-0.42532 2.23223,-0.63313 4.46862,-1.25763 6.70909,-1.87349 -2.63544,0.5685 -5.26671,1.14898 -7.89366,1.74142 -3.05892,-0.33831 -6.12282,-0.66036 -9.19158,-0.96599 3.00537,-0.8889 6.0185,-1.76207 9.03918,-2.61949 1.55871,0.05 3.11676,0.10412 4.67412,0.16247 -1.24862,-0.14389 -2.49808,-0.28508 -3.74838,-0.42357 2.2427,-0.63425 4.48955,-1.25982 6.74045,-1.8767 -2.64765,0.5697 -5.29115,1.15143 -7.93036,1.74519 -3.07269,-0.33683 -6.1504,-0.65732 -9.23299,-0.96131 3.01954,-0.89057 6.04682,-1.76534 9.08161,-2.62427 1.56576,0.0492 3.13085,0.10262 4.69525,0.16025 -1.25422,-0.14331 -2.50929,-0.28392 -3.76519,-0.42182 2.25317,-0.63535 4.51047,-1.26199 6.77181,-1.8799 -2.65986,0.5709 -5.31559,1.15389 -7.96705,1.74896 -3.08647,-0.33534 -6.17799,-0.65428 -9.27441,-0.95664 3.03371,-0.89224 6.07513,-1.7686 9.12404,-2.62905 1.5728,0.0485 3.14494,0.10114 4.71637,0.15805 -1.25981,-0.14274 -2.52048,-0.28277 -3.78199,-0.42007 2.26364,-0.63647 4.53139,-1.26418 6.80317,-1.88311 -2.67207,0.5721 -5.34003,1.15635 -8.00375,1.75274 -3.10024,-0.33386 -6.20556,-0.65125 -9.31582,-0.95198 3.04788,-0.89391 6.10344,-1.77186 9.16646,-2.63382 1.57986,0.0477 3.15904,0.0996 4.73751,0.15583 -1.26541,-0.14217 -2.53168,-0.28161 -3.7988,-0.41832 2.27411,-0.63758 4.55232,-1.26635 6.83453,-1.88631 -2.68428,0.5733 -5.36447,1.1588 -8.04044,1.75651 -3.11403,-0.33238 -6.23315,-0.64821 -9.35724,-0.94731 3.06205,-0.89558 6.13176,-1.77512 9.20889,-2.6386 1.58691,0.0469 3.17313,0.0982 4.75864,0.15363 -1.27102,-0.1416 -2.54289,-0.28046 -3.81561,-0.41657 2.28458,-0.6387 4.57324,-1.26854 6.8659,-1.88952 -2.6965,0.5745 -5.38892,1.16126 -8.07714,1.76029 -3.12781,-0.3309 -6.26074,-0.64518 -9.39866,-0.94265 3.07623,-0.89725 6.16007,-1.77838 9.25132,-2.64337 1.59396,0.0462 3.18722,0.0967 4.77976,0.15141 -1.27661,-0.14103 -2.55408,-0.2793 -3.8324,-0.41482 2.29504,-0.6398 4.59416,-1.27072 6.89725,-1.89272 -2.7087,0.5757 -5.41336,1.16372 -8.11384,1.76406 -3.14158,-0.32942 -6.28832,-0.64213 -9.44007,-0.93798 3.0904,-0.89892 6.18839,-1.78164 9.29375,-2.64815 1.601,0.0454 3.20131,0.0952 4.80089,0.14921 -1.28221,-0.14046 -2.56528,-0.27816 -3.84921,-0.41308 2.30551,-0.64091 4.61508,-1.27289 6.92861,-1.89593 -2.72091,0.5769 -5.4378,1.16618 -8.15053,1.76785 -3.15536,-0.32794 -6.3159,-0.6391 -9.48149,-0.93331 3.10457,-0.9006 6.2167,-1.78491 9.33618,-2.65293 1.60805,0.0447 3.2154,0.0937 4.82201,0.147 -1.2878,-0.13989 -2.57647,-0.27701 -3.86601,-0.41133 2.31598,-0.64203 4.636,-1.27508 6.95997,-1.89914 -2.73312,0.5781 -5.46224,1.16864 -8.18723,1.77162 -3.16914,-0.32646 -6.34348,-0.63606 -9.5229,-0.92864 3.11874,-0.90226 6.24501,-1.78817 9.3786,-2.6577 1.61511,0.0439 3.2295,0.0922 4.84315,0.14478 -1.2934,-0.13932 -2.58768,-0.27585 -3.88282,-0.40958 2.32645,-0.64314 4.65693,-1.27725 6.99133,-1.90234 -2.74533,0.5793 -5.48668,1.1711 -8.22392,1.77539 -3.18292,-0.32497 -6.37107,-0.63302 -9.56432,-0.92397 3.13291,-0.90393 6.27333,-1.79143 9.42103,-2.66248 1.62216,0.0431 3.24359,0.0907 4.86427,0.14258 -1.29899,-0.13875 -2.59887,-0.2747 -3.89962,-0.40783 2.33692,-0.64425 4.67785,-1.27944 7.02269,-1.90555 -2.75754,0.5805 -5.51112,1.17355 -8.26062,1.77917 -3.19669,-0.3235 -6.39864,-0.62999 -9.60573,-0.91931 3.14708,-0.9056 6.30164,-1.7947 9.46346,-2.66725 1.6292,0.0424 3.25767,0.0892 4.8854,0.14036 -1.3046,-0.13818 -2.61007,-0.27354 -3.91643,-0.40608 2.34739,-0.64536 4.69878,-1.28161 7.05406,-1.90875 -2.76976,0.5817 -5.53558,1.17601 -8.29732,1.78294 -3.21047,-0.32201 -6.42623,-0.62695 -9.64715,-0.91464 3.16125,-0.90727 6.32996,-1.79796 9.50589,-2.67203 1.63625,0.0416 3.27176,0.0877 4.90652,0.13816 -1.31019,-0.13761 -2.62127,-0.27239 -3.93323,-0.40433 2.35786,-0.64648 4.7197,-1.2838 7.08542,-1.91196 -2.78197,0.5829 -5.56002,1.17847 -8.33401,1.78672 -3.22425,-0.32053 -6.45382,-0.62392 -9.68857,-0.90998 3.17543,-0.90894 6.35827,-1.80122 9.54831,-2.6768 1.64331,0.0409 3.28586,0.0862 4.92766,0.13595 -1.31579,-0.13704 -2.63247,-0.27124 -3.95004,-0.40259 2.36833,-0.64758 4.74062,-1.28598 7.11678,-1.91516 -2.79418,0.58409 -5.58446,1.18092 -8.37071,1.79049 -3.23803,-0.31905 -6.4814,-0.62087 -9.72998,-0.90531 5.88226,-1.67935 11.78966,-3.30176 17.72082,-4.86704 0,0 10e-5,-10e-6 10e-5,-10e-6 z"
         style="opacity:0.93999999;fill:#374548;fill-opacity:1;stroke:none;stroke-width:1;stroke-miterlimit:4;stroke-dasharray:none;stroke-dashoffset:0;stroke-opacity:1"
         inkscape:original-d="m 348.93427,395.57862 -22.85547,2.67578 -37.14453,0.25781 36.82227,0.3418 13.56054,1.84961 -13.23828,1.55078 -37.14453,0.25781 36.82227,0.3418 13.56054,1.84961 -13.23828,1.55078 -37.14453,0.25781 36.82227,0.3418 13.56054,1.84961 -13.23828,1.55078 -37.14453,0.25781 36.82227,0.3418 13.56054,1.84961 -13.23828,1.55078 -37.14453,0.25781 36.82227,0.3418 13.56054,1.84961 -13.23828,1.55078 -37.14453,0.25781 36.82227,0.3418 13.56054,1.84961 -13.23828,1.55078 -37.14453,0.25781 36.82227,0.3418 13.56054,1.84961 -13.23828,1.55078 -37.14453,0.25781 36.82227,0.3418 13.56054,1.84961 -13.23828,1.55078 -37.14453,0.25781 36.82227,0.3418 13.56054,1.84961 -13.23828,1.55078 -37.14453,0.25781 36.82227,0.3418 13.56054,1.84961 -13.23828,1.55078 -37.14453,0.25781 36.82227,0.3418 13.56054,1.84961 -13.23828,1.55078 -37.14453,0.25781 36.82227,0.3418 13.56054,1.84961 -13.23828,1.55078 -37.14453,0.25781 36.82227,0.3418 13.56054,1.84961 -13.23828,1.55078 -37.14453,0.25781 36.82227,0.3418 13.56054,1.84961 -13.23828,1.55078 -37.14453,0.25781 36.82227,0.3418 13.56054,1.84961 -13.23828,1.55078 -37.14453,0.25781 36.82227,0.3418 13.56054,1.84961 -13.23828,1.55078 -37.14453,0.25781 36.82227,0.3418 13.56054,1.84961 -13.23828,1.55078 -37.14453,0.25781 36.82227,0.3418 13.56054,1.84961 -13.23828,1.55078 -37.14453,0.25781 36.82227,0.3418 13.56054,1.84961 -13.23828,1.55078 -37.14453,0.25781 36.82227,0.3418 13.56054,1.84961 -13.23828,1.55078 -37.14453,0.25781 36.82227,0.3418 13.56054,1.84961 -13.23828,1.55078 -37.14453,0.25781 36.82227,0.3418 13.56054,1.84961 -13.23828,1.55078 -37.14453,0.25781 36.82227,0.3418 13.56054,1.84961 -13.23828,1.55078 -37.14453,0.25781 36.82227,0.3418 13.56054,1.84961 -13.23828,1.55078 -37.14453,0.25781 36.82227,0.3418 13.55664,1.84961 -13.23438,1.55078 -37.14453,0.25781 36.82227,0.3418 13.56054,1.84961 -13.23828,1.55078 -37.14453,0.25781 36.82227,0.3418 13.56054,1.84961 -13.23828,1.55078 -37.14453,0.25781 36.82227,0.3418 19.96679,2.72461 -13.96679,-3.01758 9.31445,-1.61719 4.65234,0.63477 -3.70117,-0.79883 6.91211,-1.20117 -8.08594,0.94726 -9.09179,-1.96484 9.31445,-1.61719 4.65234,0.63477 -3.70117,-0.79883 6.91211,-1.20117 -8.08594,0.94726 -9.09179,-1.96484 9.31445,-1.61719 4.65234,0.63477 -3.69922,-0.79883 6.91016,-1.20117 -8.08398,0.94726 -0.002,0 -9.09179,-1.96484 9.31445,-1.61719 4.65234,0.63477 -3.70117,-0.79883 6.91211,-1.20117 -8.08594,0.94726 -9.09179,-1.96484 9.31445,-1.61719 4.65234,0.63477 -3.70117,-0.79883 6.91211,-1.20117 -8.08594,0.94726 -0.002,0 -9.08984,-1.96484 9.31445,-1.61719 4.65234,0.63477 -3.70117,-0.79883 6.91211,-1.20117 -8.08594,0.94726 -9.09179,-1.96484 9.31445,-1.61719 4.65234,0.63477 -3.70117,-0.79883 6.91211,-1.20117 -8.08594,0.94726 -9.09179,-1.96484 9.31445,-1.61719 4.65234,0.63477 -3.70117,-0.79883 6.91211,-1.20117 -8.08594,0.94726 -9.09179,-1.96484 9.31445,-1.61719 4.65234,0.63477 -3.70117,-0.79883 6.91211,-1.20117 -8.08594,0.94726 -9.09179,-1.96484 9.31445,-1.61719 4.65234,0.63477 -3.70117,-0.79883 6.91211,-1.20117 -8.08594,0.94726 -9.09179,-1.96484 9.31445,-1.61719 4.65234,0.63477 -3.70117,-0.79883 6.91211,-1.20117 -8.08594,0.94726 -9.09179,-1.96484 9.31445,-1.61719 4.65234,0.63477 -3.70117,-0.79883 6.91211,-1.20117 -8.08594,0.94726 -9.09179,-1.96484 9.31445,-1.61719 4.65234,0.63477 -3.70117,-0.79883 6.91211,-1.20117 -8.08594,0.94726 -9.09179,-1.96484 9.31445,-1.61719 4.65234,0.63477 -3.70117,-0.79883 6.91211,-1.20117 -8.08594,0.94726 -9.09179,-1.96484 9.31445,-1.61719 4.65234,0.63477 -3.70117,-0.79883 6.91211,-1.20117 -8.08594,0.94726 -9.09179,-1.96484 9.31445,-1.61719 4.65234,0.63477 -3.70117,-0.79883 6.91211,-1.20117 -8.08594,0.94726 -9.09179,-1.96484 9.31445,-1.61719 4.65234,0.63477 -3.70117,-0.79883 6.91211,-1.20117 -8.08594,0.94726 -9.09179,-1.96484 9.31445,-1.61719 4.65234,0.63477 -3.70117,-0.79883 6.91211,-1.20117 -8.08594,0.94726 -9.09179,-1.96484 9.31445,-1.61719 4.65234,0.63477 -3.70117,-0.79883 6.91211,-1.20117 -8.08594,0.94726 -9.09179,-1.96484 9.31445,-1.61719 4.65234,0.63477 -3.70117,-0.79883 6.91211,-1.20117 -8.08594,0.94726 -9.09179,-1.96484 9.31445,-1.61719 4.65234,0.63477 -3.70117,-0.79883 6.91211,-1.20117 -8.08594,0.94726 -9.09179,-1.96484 9.31445,-1.61719 4.65234,0.63477 -3.70117,-0.79883 6.91211,-1.20117 -8.08594,0.94726 -9.09179,-1.96484 9.31445,-1.61719 4.65234,0.63477 -3.70117,-0.79883 6.91211,-1.20117 -8.08594,0.94726 -9.09179,-1.96484 9.31445,-1.61719 4.65234,0.63477 -3.70117,-0.79883 6.91211,-1.20117 -8.08594,0.94726 -9.09179,-1.96484 9.31445,-1.61719 4.65234,0.63477 -3.70117,-0.79883 6.91211,-1.20117 -8.08594,0.94726 -9.09179,-1.96484 9.31445,-1.61719 4.65234,0.63477 -3.70117,-0.79883 6.91211,-1.20117 -8.08594,0.94726 -9.09179,-1.96484 9.31445,-1.61719 4.65234,0.63477 -3.70117,-0.79883 6.91211,-1.20117 -8.08594,0.94726 -9.09179,-1.96484 17.17773,-2.98242 z" />
      <path
         inkscape:connector-curvature="0"
         style="opacity:0.93999999;fill:#374548;fill-opacity:1;stroke:none;stroke-width:1;stroke-miterlimit:4;stroke-dasharray:none;stroke-dashoffset:0;stroke-opacity:1"
         d="m 521.46688,497.21769 c 7.2057,-0.20721 14.43295,-0.33492 21.6792,-0.38575 11.61872,1.27195 23.24189,2.7419 34.86306,4.3966 -11.49083,-1.83731 -22.98983,-3.49399 -34.49133,-4.95685 -4.16899,-1.10947 -8.34535,-2.19344 -12.52905,-3.25112 4.20024,-0.0803 8.40718,-0.13411 12.62032,-0.1621 11.66345,1.2769 23.32993,2.75245 34.99297,4.41342 -11.53233,-1.84352 -23.07425,-3.50577 -34.62008,-4.97353 -4.18532,-1.11129 -8.37819,-2.19697 -12.5786,-3.25629 4.21656,-0.0787 8.43962,-0.13084 12.6687,-0.15707 11.7082,1.28184 23.41799,2.763 35.1229,4.43024 -11.57385,-1.84974 -23.15869,-3.51755 -34.74885,-4.99022 -4.20163,-1.1131 -8.41102,-2.2005 -12.62814,-3.26145 4.23287,-0.0771 8.47206,-0.12757 12.71708,-0.15204 11.75294,1.28679 23.50604,2.77355 35.25283,4.44705 -11.61536,-1.85594 -23.24312,-3.52931 -34.87761,-5.0069 -4.21796,-1.1149 -8.44387,-2.20403 -12.67768,-3.26661 4.24917,-0.0755 8.50448,-0.1243 12.76546,-0.14701 11.79767,1.29173 23.59408,2.7841 35.38275,4.46387 -11.65688,-1.86216 -23.32756,-3.54109 -35.00637,-5.02359 -4.23429,-1.11671 -8.47671,-2.20756 -12.72723,-3.27177 4.26548,-0.0739 8.53692,-0.12103 12.81384,-0.14197 11.84242,1.29667 23.68213,2.79464 35.51267,4.48068 -11.69838,-1.86837 -23.41198,-3.55287 -35.13512,-5.04028 -4.25061,-1.11852 -8.50955,-2.21109 -12.77678,-3.27693 4.28179,-0.0723 8.56936,-0.11776 12.86222,-0.13694 11.88716,1.30161 23.77018,2.8052 35.6426,4.4975 -11.7399,-1.87459 -23.49642,-3.56465 -35.26389,-5.05697 -4.26693,-1.12033 -8.54238,-2.21462 -12.82632,-3.2821 4.2981,-0.0707 8.6018,-0.11448 12.91061,-0.1319 11.93189,1.30656 23.85822,2.81575 35.77252,4.51431 -11.78142,-1.88079 -23.58085,-3.57641 -35.39265,-5.07365 -4.28326,-1.12214 -8.57522,-2.21815 -12.87587,-3.28726 4.31441,-0.0691 8.63424,-0.11121 12.95899,-0.12687 11.97664,1.3115 23.94627,2.8263 35.90245,4.53113 -11.82293,-1.88701 -23.66529,-3.58819 -35.52141,-5.09034 -4.29958,-1.12394 -8.60807,-2.22167 -12.92541,-3.29242 4.33071,-0.0675 8.66667,-0.10794 13.00736,-0.12184 12.02138,1.31645 24.03432,2.83685 36.03237,4.54795 -11.86444,-1.89323 -23.74971,-3.59997 -35.65016,-5.10703 -4.31591,-1.12575 -8.64091,-2.2252 -12.97496,-3.29758 4.34702,-0.0659 8.6991,-0.10467 13.05575,-0.1168 12.06611,1.32138 24.12237,2.84739 36.16229,4.56475 -11.90595,-1.89943 -23.83415,-3.61174 -35.77893,-5.12371 -4.33223,-1.12756 -8.67374,-2.22873 -13.0245,-3.30274 4.36333,-0.0643 8.73154,-0.1014 13.10413,-0.11177 12.11086,1.32633 24.21042,2.85794 36.29222,4.58157 -11.94747,-1.90565 -23.91859,-3.62351 -35.90769,-5.1404 -4.34855,-1.12937 -8.70658,-2.23226 -13.07405,-3.3079 4.37965,-0.0627 8.76398,-0.0981 13.15251,-0.10674 12.1556,1.33127 24.29847,2.86849 36.42215,4.59839 -11.98898,-1.91186 -24.00302,-3.63529 -36.03645,-5.15709 -4.36488,-1.13118 -8.73942,-2.23579 -13.1236,-3.31306 4.39596,-0.0611 8.79642,-0.0949 13.2009,-0.10171 12.20033,1.33622 24.38651,2.87904 36.55206,4.61521 -12.03049,-1.91808 -24.08745,-3.64707 -36.1652,-5.17377 -4.38121,-1.13299 -8.77227,-2.23933 -13.17314,-3.31823 4.41226,-0.0595 8.82885,-0.0916 13.24927,-0.0967 12.24508,1.34116 24.47456,2.88959 36.68199,4.63202 -12.072,-1.92428 -24.17188,-3.65884 -36.29397,-5.19045 -4.39752,-1.1348 -8.8051,-2.24286 -13.22268,-3.32339 4.42857,-0.0579 8.86128,-0.0883 13.29765,-0.0916 12.28982,1.3461 24.56261,2.90013 36.81192,4.64883 -12.11352,-1.9305 -24.25632,-3.67061 -36.42273,-5.20714 -4.41385,-1.13661 -8.83794,-2.24638 -13.27223,-3.32855 4.44488,-0.0563 8.89372,-0.085 13.34604,-0.0866 12.33455,1.35104 24.65065,2.91068 36.94184,4.66565 -12.15503,-1.93671 -24.34075,-3.68239 -36.55149,-5.22383 -4.43018,-1.13842 -8.87078,-2.24991 -13.32178,-3.33372 4.46119,-0.0548 8.92616,-0.0818 13.39442,-0.0816 12.37929,1.35599 24.7387,2.92123 37.07176,4.68246 -12.19654,-1.94292 -24.42518,-3.69416 -36.68024,-5.24051 -4.4465,-1.14023 -8.90362,-2.25344 -13.37133,-3.33888 4.4775,-0.0532 8.9586,-0.0785 13.4428,-0.0765 12.42404,1.36093 24.82676,2.93178 37.20169,4.69928 -12.23806,-1.94913 -24.50961,-3.70594 -36.80901,-5.2572 -4.46282,-1.14203 -8.93646,-2.25697 -13.42086,-3.34404 4.4938,-0.0516 8.99103,-0.0752 13.49118,-0.0715 12.46877,1.36588 24.9148,2.94233 37.33161,4.7161 -12.27957,-1.95535 -24.59405,-3.71771 -36.93777,-5.27389 -4.47915,-1.14384 -8.9693,-2.2605 -13.47041,-3.3492 4.51011,-0.05 9.02346,-0.072 13.53956,-0.0665 12.51351,1.37081 25.00285,2.95287 37.46154,4.73291 -12.32109,-1.96157 -24.67848,-3.72949 -37.06653,-5.29058 -4.49547,-1.14565 -9.00214,-2.26403 -13.51996,-3.35436 4.52642,-0.0484 9.0559,-0.0687 13.58794,-0.0614 12.55826,1.37576 25.0909,2.96342 37.59147,4.74972 -12.3626,-1.96777 -24.76292,-3.74126 -37.19529,-5.30726 -4.5118,-1.14746 -9.03498,-2.26756 -13.56951,-3.35952 4.54274,-0.0468 9.08834,-0.0654 13.63633,-0.0564 12.60299,1.3807 25.17894,2.97397 37.72138,4.76654 -12.40411,-1.97399 -24.84735,-3.75304 -37.32405,-5.32395 -4.52812,-1.14927 -9.06781,-2.27108 -13.61904,-3.36468 4.55904,-0.0452 9.12077,-0.0622 13.6847,-0.0514 12.64773,1.38565 25.26699,2.98452 37.85131,4.78336 -12.44562,-1.9802 -24.93178,-3.76481 -37.45281,-5.34064 -4.54445,-1.15107 -9.10066,-2.27461 -13.66859,-3.36984 4.57535,-0.0436 9.15321,-0.0589 13.73308,-0.0463 12.69248,1.39059 25.35504,2.99507 37.98124,4.80017 -12.48714,-1.98641 -25.01622,-3.77658 -37.58157,-5.35732 -4.55944,-1.15273 -9.13083,-2.27785 -13.71413,-3.37459 4.59032,-0.0421 9.18297,-0.0559 13.77746,-0.0417 12.73721,1.39553 25.44308,3.00561 38.11116,4.81698 -12.52865,-1.99262 -25.10065,-3.78836 -37.71033,-5.374 -4.5771,-1.1547 -9.16634,-2.28168 -13.76769,-3.38017 4.60797,-0.0404 9.21808,-0.0523 13.82985,-0.0363 12.78195,1.40047 25.53114,3.01616 38.24108,4.8338 -12.57016,-1.99884 -25.18508,-3.80014 -37.83909,-5.39069 -4.59342,-1.15651 -9.19917,-2.28521 -13.81723,-3.38534 4.62428,-0.0388 9.25052,-0.0491 13.87823,-0.0312 12.8267,1.40542 25.61919,3.02671 38.37101,4.85062 -12.61167,-2.00505 -25.26951,-3.81191 -37.96785,-5.40738 -6.78742,-1.70592 -13.60201,-3.35138 -20.44366,-4.9339 4.74953,1.47576 9.48099,2.98188 14.19451,4.51742 -3.27725,0.17846 -6.5522,0.37109 -9.82464,0.57805 -1.58544,-0.37495 -3.17234,-0.74654 -4.76067,-1.11472 1.25403,0.39038 2.50681,0.78289 3.75834,1.1775 -2.42809,0.15611 -4.85478,0.32012 -7.27999,0.4921 2.82261,-0.0492 5.64609,-0.0877 8.47032,-0.11546 3.0723,0.97347 6.13704,1.95963 9.19427,2.95822 -3.26593,0.17965 -6.52946,0.37343 -9.79039,0.58149 -1.5797,-0.3744 -3.16082,-0.74544 -4.74336,-1.11309 1.24942,0.38996 2.49761,0.78203 3.74456,1.1762 -2.41954,0.15693 -4.83762,0.32173 -7.25418,0.49448 2.81249,-0.0501 5.62591,-0.0895 8.44016,-0.11825 3.06106,0.97239 6.11466,1.95743 9.16083,2.95485 -3.25459,0.18085 -6.50671,0.37577 -9.75613,0.58494 -1.57395,-0.37385 -3.1493,-0.74435 -4.72605,-1.11146 1.24415,0.38946 2.48707,0.78104 3.72877,1.17471 -2.41031,0.15781 -4.81913,0.32347 -7.22636,0.49705 2.80169,-0.0511 5.60439,-0.0915 8.40798,-0.12124 0,0 0.002,2.1e-4 0.002,2.1e-4 3.04984,0.97131 6.09229,1.95522 9.1274,2.95149 -3.24326,0.18203 -6.48395,0.3781 -9.72187,0.58838 -1.5682,-0.3733 -3.13778,-0.74326 -4.70874,-1.10985 1.24021,0.38912 2.47921,0.78033 3.71699,1.17363 -2.40242,0.15856 -4.8033,0.32494 -7.20255,0.49922 2.79224,-0.0519 5.58556,-0.0932 8.37983,-0.12382 3.0386,0.97023 6.06992,1.95302 9.09397,2.94812 -3.23194,0.18323 -6.46121,0.38045 -9.68762,0.59183 -1.56245,-0.37275 -3.12626,-0.74217 -4.69142,-1.10822 1.23559,0.38869 2.46999,0.77947 3.7032,1.17234 -2.39387,0.15937 -4.78614,0.32654 -7.17674,0.50159 2.78212,-0.0528 5.56538,-0.095 8.34966,-0.12661 0,0 0.002,2.1e-4 0.002,2.1e-4 3.02672,0.96908 6.04622,1.95069 9.05855,2.94456 -3.22061,0.18441 -6.43846,0.38278 -9.65336,0.59526 -1.5567,-0.37219 -3.11474,-0.74107 -4.67411,-1.10659 1.23099,0.38827 2.46079,0.77862 3.68942,1.17105 -2.38532,0.16019 -4.76899,0.32815 -7.15093,0.50397 2.772,-0.0537 5.5452,-0.0968 8.3195,-0.1294 3.01615,0.96806 6.02517,1.94861 9.0271,2.9414 -3.20927,0.1856 -6.41571,0.38511 -9.6191,0.5987 -1.55095,-0.37164 -3.10322,-0.73998 -4.6568,-1.10496 1.22638,0.38784 2.45159,0.77777 3.67564,1.16976 -2.37676,0.161 -4.75183,0.32975 -7.12512,0.50634 2.76187,-0.0546 5.52502,-0.0987 8.28933,-0.13219 3.00492,0.96698 6.0028,1.94641 8.99368,2.93804 -3.19795,0.18678 -6.39297,0.38745 -9.58485,0.60214 -1.54521,-0.37109 -3.0917,-0.73888 -4.63949,-1.10334 1.22177,0.38742 2.44239,0.77692 3.66186,1.16848 -2.36821,0.16181 -4.73468,0.33136 -7.09931,0.50871 2.75175,-0.0555 5.50484,-0.10049 8.25917,-0.13498 2.99368,0.9659 5.98042,1.94421 8.96024,2.93467 -3.18662,0.18798 -6.37022,0.38979 -9.55059,0.60559 -1.53946,-0.37054 -3.08018,-0.73779 -4.62218,-1.10171 1.21717,0.38699 2.43319,0.77606 3.64807,1.16719 -2.35965,0.16262 -4.71751,0.33296 -7.07349,0.51108 2.74163,-0.0564 5.48466,-0.10232 8.229,-0.13777 2.98246,0.96482 5.95805,1.94201 8.92681,2.93131 -3.17529,0.18917 -6.34747,0.39212 -9.51633,0.60903 -1.53371,-0.36999 -3.06866,-0.73669 -4.60486,-1.10009 1.21255,0.38658 2.42398,0.77522 3.63428,1.1659 -2.3511,0.16344 -4.70035,0.33457 -7.04769,0.51346 2.73151,-0.0573 5.4645,-0.10414 8.19884,-0.14056 2.97123,0.96374 5.93568,1.93981 8.89338,2.92795 -3.16396,0.19035 -6.32472,0.39446 -9.48207,0.61247 -1.52796,-0.36943 -3.05715,-0.7356 -4.58755,-1.09846 1.20794,0.38615 2.41478,0.77436 3.6205,1.16461 -2.34254,0.16425 -4.6832,0.33618 -7.02188,0.51583 2.72139,-0.0582 5.44432,-0.10597 8.16868,-0.14335 2.96,0.96266 5.9133,1.93761 8.85995,2.92459 -3.15264,0.19154 -6.30198,0.39679 -9.44782,0.61591 -1.52221,-0.36888 -3.04563,-0.73451 -4.57024,-1.09684 1.20334,0.38573 2.40557,0.77351 3.60672,1.16333 -2.33399,0.16506 -4.66604,0.33778 -6.99607,0.5182 2.71127,-0.0591 5.42414,-0.1078 8.13851,-0.14614 2.94877,0.96158 5.89093,1.93541 8.82652,2.92123 -3.1413,0.19273 -6.27923,0.39913 -9.41356,0.61935 -1.51647,-0.36833 -3.03411,-0.73341 -4.55293,-1.09521 1.19873,0.3853 2.39637,0.77265 3.59294,1.16203 -2.32544,0.16589 -4.64889,0.33939 -6.97026,0.52059 2.70114,-0.06 5.40396,-0.10964 8.10835,-0.14894 2.93754,0.9605 5.86855,1.9332 8.79308,2.91787 -3.12997,0.19392 -6.25648,0.40146 -9.3793,0.62279 -1.51072,-0.36778 -3.02259,-0.73232 -4.53562,-1.09359 1.19412,0.38489 2.38717,0.77181 3.57915,1.16075 -2.31688,0.1667 -4.63172,0.34099 -6.94444,0.52296 2.69102,-0.0609 5.38378,-0.11147 8.07818,-0.15173 2.92631,0.95942 5.84619,1.931 8.75966,2.9145 -3.11865,0.19511 -6.23374,0.40381 -9.34505,0.62624 -1.50497,-0.36722 -3.01107,-0.73122 -4.5183,-1.09196 1.18951,0.38446 2.37796,0.77095 3.56536,1.15946 -2.30833,0.16751 -4.61456,0.3426 -6.91863,0.52533 2.68089,-0.0618 5.3636,-0.11329 8.04801,-0.15452 2.91509,0.95834 5.82382,1.9288 8.72623,2.91114 -3.10732,0.1963 -6.21099,0.40614 -9.31079,0.62968 -1.49922,-0.36667 -2.99955,-0.73013 -4.50099,-1.09034 1.1849,0.38404 2.36876,0.7701 3.55158,1.15818 -2.29977,0.16832 -4.59741,0.3442 -6.89282,0.5277 2.67077,-0.0627 5.34342,-0.11512 8.01785,-0.15731 2.90385,0.95726 5.80144,1.9266 8.69279,2.90778 -3.09599,0.19749 -6.18824,0.40847 -9.27654,0.63312 -1.49347,-0.36612 -2.98802,-0.72904 -4.48367,-1.08871 1.18029,0.38361 2.35956,0.76925 3.5378,1.15688 -2.29122,0.16914 -4.58025,0.34581 -6.86701,0.53008 2.66065,-0.0636 5.32325,-0.11695 7.98768,-0.1601 2.89263,0.95618 5.77907,1.9244 8.65936,2.90442 -3.08466,0.19867 -6.16548,0.41081 -9.24228,0.63656 -1.48772,-0.36557 -2.97651,-0.72794 -4.46636,-1.08708 1.17569,0.38319 2.35036,0.76839 3.52402,1.15559 -2.28267,0.16995 -4.5631,0.34741 -6.8412,0.53245 2.65052,-0.0645 5.30307,-0.11878 7.95752,-0.16289 2.88139,0.9551 5.75669,1.9222 8.62593,2.90106 -3.07333,0.19986 -6.14274,0.41314 -9.20803,0.64 -1.48197,-0.36502 -2.96499,-0.72685 -4.44905,-1.08546 1.17108,0.38277 2.34115,0.76754 3.51023,1.15431 -2.27411,0.17076 -4.54593,0.34902 -6.81538,0.53482 2.6404,-0.0654 5.28289,-0.12061 7.92735,-0.16568 2.87017,0.95402 5.73432,1.92 8.5925,2.8977 -3.062,0.20105 -6.11999,0.41548 -9.17377,0.64344 -1.47622,-0.36446 -2.95347,-0.72575 -4.43173,-1.08383 1.16646,0.38234 2.33194,0.76669 3.49644,1.15302 -2.26555,0.17158 -4.52877,0.35062 -6.78957,0.53719 2.63028,-0.0663 5.26271,-0.12243 7.89719,-0.16847 2.85893,0.95293 5.71194,1.9178 8.55906,2.89433 -3.05067,0.20225 -6.09724,0.41782 -9.13951,0.64689 -1.47047,-0.36391 -2.94195,-0.72466 -4.41442,-1.08221 1.16185,0.38192 2.32274,0.76584 3.48266,1.15173 -2.257,0.1724 -4.51162,0.35223 -6.76376,0.53957 2.62015,-0.0672 5.24253,-0.12426 7.86702,-0.17125 2.8477,0.95184 5.68957,1.91558 8.52564,2.89096 -3.03935,0.20343 -6.0745,0.42016 -9.10526,0.65033 -1.46473,-0.36336 -2.93043,-0.72357 -4.39711,-1.08058 1.15725,0.3815 2.31354,0.76498 3.46888,1.15044 -2.24845,0.17321 -4.49446,0.35383 -6.73795,0.54194 2.61003,-0.0681 5.22235,-0.12609 7.83685,-0.17404 2.83648,0.95076 5.6672,1.91338 8.49221,2.8876 -3.02802,0.20462 -6.05175,0.42249 -9.071,0.65377 -1.45898,-0.36281 -2.91891,-0.72247 -4.3798,-1.07896 1.15264,0.38108 2.30434,0.76414 3.4551,1.14916 -2.2399,0.17402 -4.47731,0.35544 -6.71214,0.54431 2.59991,-0.069 5.20217,-0.12792 7.80669,-0.17683 2.82524,0.94968 5.64482,1.91118 8.45877,2.88424 -3.01669,0.20581 -6.029,0.42482 -9.03674,0.65721 -1.45323,-0.36226 -2.90739,-0.72138 -4.36249,-1.07733 1.14803,0.38065 2.29514,0.76328 3.44131,1.14787 -2.23134,0.17483 -4.46014,0.35704 -6.68632,0.54669 2.58978,-0.0699 5.182,-0.12975 7.77652,-0.17963 2.81402,0.9486 5.62245,1.90898 8.42534,2.88088 -3.00535,0.20699 -6.00625,0.42716 -9.00248,0.66065 -1.44748,-0.3617 -2.89587,-0.72028 -4.34517,-1.07571 1.14342,0.38024 2.28592,0.76243 3.42752,1.14658 -2.22278,0.17565 -4.44298,0.35865 -6.66051,0.54907 2.57966,-0.0708 5.16182,-0.13158 7.74636,-0.18242 2.80278,0.94752 5.60007,1.90678 8.39191,2.87752 -2.99403,0.20818 -5.98351,0.42949 -8.96823,0.66409 -1.44174,-0.36115 -2.88436,-0.71919 -4.32786,-1.07408 1.13881,0.37981 2.27672,0.76158 3.41374,1.14529 -2.21423,0.17646 -4.42583,0.36026 -6.63471,0.55144 2.56955,-0.0717 5.14165,-0.13341 7.7162,-0.18521 2.79156,0.94644 5.57771,1.90458 8.35848,2.87415 -2.9827,0.20938 -5.96076,0.43184 -8.93397,0.66754 -1.43599,-0.3606 -2.87284,-0.7181 -4.31055,-1.07246 1.1342,0.37939 2.26752,0.76073 3.39996,1.14401 -2.20568,0.17728 -4.40867,0.36186 -6.6089,0.55381 2.55942,-0.0726 5.12147,-0.13524 7.68603,-0.188 2.78033,0.94536 5.55534,1.90238 8.32505,2.87079 -5.47981,0.38832 -10.94353,0.821 -16.38986,1.29905 0,0 -8e-5,-10e-6 -8e-5,-10e-6 z"
         id="path4453"
         inkscape:original-d="m 527.89687,511.65342 22.85547,-2.67578 37.14453,-0.25781 -36.82227,-0.3418 -13.56054,-1.84961 13.23828,-1.55078 37.14453,-0.25781 -36.82227,-0.3418 -13.56054,-1.84961 13.23828,-1.55078 37.14453,-0.25781 -36.82227,-0.3418 -13.56054,-1.84961 13.23828,-1.55078 37.14453,-0.25781 -36.82227,-0.3418 -13.56054,-1.84961 13.23828,-1.55078 37.14453,-0.25781 -36.82227,-0.3418 -13.56054,-1.84961 13.23828,-1.55078 37.14453,-0.25781 -36.82227,-0.3418 -13.56054,-1.84961 13.23828,-1.55078 37.14453,-0.25781 -36.82227,-0.3418 -13.56054,-1.84961 13.23828,-1.55078 37.14453,-0.25781 -36.82227,-0.3418 -13.56054,-1.84961 13.23828,-1.55078 37.14453,-0.25781 -36.82227,-0.3418 -13.56054,-1.84961 13.23828,-1.55078 37.14453,-0.25781 -36.82227,-0.3418 -13.56054,-1.84961 13.23828,-1.55078 37.14453,-0.25781 -36.82227,-0.3418 -13.56054,-1.84961 13.23828,-1.55078 37.14453,-0.25781 -36.82227,-0.3418 -13.56054,-1.84961 13.23828,-1.55078 37.14453,-0.25781 -36.82227,-0.3418 -13.56054,-1.84961 13.23828,-1.55078 37.14453,-0.25781 -36.82227,-0.3418 -13.56054,-1.84961 13.23828,-1.55078 37.14453,-0.25781 -36.82227,-0.3418 -13.56054,-1.84961 13.23828,-1.55078 37.14453,-0.25781 -36.82227,-0.3418 -13.56054,-1.84961 13.23828,-1.55078 37.14453,-0.25781 -36.82227,-0.3418 -13.56054,-1.84961 13.23828,-1.55078 37.14453,-0.25781 -36.82227,-0.3418 -13.56054,-1.84961 13.23828,-1.55078 37.14453,-0.25781 -36.82227,-0.3418 -13.56054,-1.84961 13.23828,-1.55078 37.14453,-0.25781 -36.82227,-0.3418 -13.56054,-1.84961 13.23828,-1.55078 37.14453,-0.25781 -36.82227,-0.3418 -13.56054,-1.84961 13.23828,-1.55078 37.14453,-0.25781 -36.82227,-0.3418 -13.56054,-1.84961 13.23828,-1.55078 37.14453,-0.25781 -36.82227,-0.3418 -13.56054,-1.84961 13.23828,-1.55078 37.14453,-0.25781 -36.82227,-0.3418 -13.56054,-1.84961 13.23828,-1.55078 37.14453,-0.25781 -36.82227,-0.3418 -13.55664,-1.84961 13.23438,-1.55078 37.14453,-0.25781 -36.82227,-0.3418 -13.56054,-1.84961 13.23828,-1.55078 37.14453,-0.25781 -36.82227,-0.3418 -13.56054,-1.84961 13.23828,-1.55078 37.14453,-0.25781 -36.82227,-0.3418 -19.96679,-2.72461 13.96679,3.01758 -9.31445,1.61719 -4.65234,-0.63477 3.70117,0.79883 -6.91211,1.20117 8.08594,-0.94726 9.09179,1.96484 -9.31445,1.61719 -4.65234,-0.63477 3.70117,0.79883 -6.91211,1.20117 8.08594,-0.94726 9.09179,1.96484 -9.31445,1.61719 -4.65234,-0.63477 3.69922,0.79883 -6.91016,1.20117 8.08398,-0.94726 0.002,0 9.09179,1.96484 -9.31445,1.61719 -4.65234,-0.63477 3.70117,0.79883 -6.91211,1.20117 8.08594,-0.94726 9.09179,1.96484 -9.31445,1.61719 -4.65234,-0.63477 3.70117,0.79883 -6.91211,1.20117 8.08594,-0.94726 0.002,0 9.08984,1.96484 -9.31445,1.61719 -4.65234,-0.63477 3.70117,0.79883 -6.91211,1.20117 8.08594,-0.94726 9.09179,1.96484 -9.31445,1.61719 -4.65234,-0.63477 3.70117,0.79883 -6.91211,1.20117 8.08594,-0.94726 9.09179,1.96484 -9.31445,1.61719 -4.65234,-0.63477 3.70117,0.79883 -6.91211,1.20117 8.08594,-0.94726 9.09179,1.96484 -9.31445,1.61719 -4.65234,-0.63477 3.70117,0.79883 -6.91211,1.20117 8.08594,-0.94726 9.09179,1.96484 -9.31445,1.61719 -4.65234,-0.63477 3.70117,0.79883 -6.91211,1.20117 8.08594,-0.94726 9.09179,1.96484 -9.31445,1.61719 -4.65234,-0.63477 3.70117,0.79883 -6.91211,1.20117 8.08594,-0.94726 9.09179,1.96484 -9.31445,1.61719 -4.65234,-0.63477 3.70117,0.79883 -6.91211,1.20117 8.08594,-0.94726 9.09179,1.96484 -9.31445,1.61719 -4.65234,-0.63477 3.70117,0.79883 -6.91211,1.20117 8.08594,-0.94726 9.09179,1.96484 -9.31445,1.61719 -4.65234,-0.63477 3.70117,0.79883 -6.91211,1.20117 8.08594,-0.94726 9.09179,1.96484 -9.31445,1.61719 -4.65234,-0.63477 3.70117,0.79883 -6.91211,1.20117 8.08594,-0.94726 9.09179,1.96484 -9.31445,1.61719 -4.65234,-0.63477 3.70117,0.79883 -6.91211,1.20117 8.08594,-0.94726 9.09179,1.96484 -9.31445,1.61719 -4.65234,-0.63477 3.70117,0.79883 -6.91211,1.20117 8.08594,-0.94726 9.09179,1.96484 -9.31445,1.61719 -4.65234,-0.63477 3.70117,0.79883 -6.91211,1.20117 8.08594,-0.94726 9.09179,1.96484 -9.31445,1.61719 -4.65234,-0.63477 3.70117,0.79883 -6.91211,1.20117 8.08594,-0.94726 9.09179,1.96484 -9.31445,1.61719 -4.65234,-0.63477 3.70117,0.79883 -6.91211,1.20117 8.08594,-0.94726 9.09179,1.96484 -9.31445,1.61719 -4.65234,-0.63477 3.70117,0.79883 -6.91211,1.20117 8.08594,-0.94726 9.09179,1.96484 -9.31445,1.61719 -4.65234,-0.63477 3.70117,0.79883 -6.91211,1.20117 8.08594,-0.94726 9.09179,1.96484 -9.31445,1.61719 -4.65234,-0.63477 3.70117,0.79883 -6.91211,1.20117 8.08594,-0.94726 9.09179,1.96484 -9.31445,1.61719 -4.65234,-0.63477 3.70117,0.79883 -6.91211,1.20117 8.08594,-0.94726 9.09179,1.96484 -9.31445,1.61719 -4.65234,-0.63477 3.70117,0.79883 -6.91211,1.20117 8.08594,-0.94726 9.09179,1.96484 -9.31445,1.61719 -4.65234,-0.63477 3.70117,0.79883 -6.91211,1.20117 8.08594,-0.94726 9.09179,1.96484 -9.31445,1.61719 -4.65234,-0.63477 3.70117,0.79883 -6.91211,1.20117 8.08594,-0.94726 9.09179,1.96484 -17.17773,2.98242 z" />
      <path
         inkscape:connector-curvature="0"
         id="path4422"
         d="m 355.78597,475.38319 c -0.77339,-6.94983 -1.55007,-13.89931 -2.33005,-20.84845 -11.50938,8.39883 -22.67786,17.02855 -33.48559,25.87251 12.59127,4.37479 24.96489,9.04286 37.11508,13.98243 -0.43665,-6.3352 -0.8698,-12.6707 -1.29944,-19.00649 z"
         style="fill:#374548;fill-opacity:1;fill-rule:evenodd;stroke:none;stroke-width:1;stroke-linecap:butt;stroke-linejoin:miter;stroke-miterlimit:4;stroke-dasharray:none;stroke-opacity:1"
         inkscape:original-d="m 351.68487,490.47528 -0.4164,-20.97453 -37.72352,21.90477 37.65276,18.11536 z" />
      <path
         inkscape:connector-curvature="0"
         id="path4422-3"
         d="m 523.60067,477.16645 c -0.24947,6.98715 -0.50745,13.9738 -0.77392,20.95994 12.19982,-6.67706 24.67531,-13.12915 37.39577,-19.35785 -11.50812,-7.05763 -23.21075,-13.93003 -35.11999,-20.59368 -0.49874,6.33068 -0.99936,12.66121 -1.50186,18.99159 z"
         style="fill:#374548;fill-opacity:1;fill-rule:evenodd;stroke:none;stroke-width:1;stroke-linecap:butt;stroke-linejoin:miter;stroke-miterlimit:4;stroke-dasharray:none;stroke-opacity:1"
         inkscape:original-d="m 528.13211,491.4892 1.29917,20.93839 36.76776,-23.47369 -38.38211,-16.51393 z" />
      <rect
         y="367.56839"
         x="312.74536"
         height="112.65812"
         width="256.54822"
         id="rect4386"
         style="opacity:0.93999999;fill:#37c8ab;fill-opacity:1;stroke:#374548;stroke-width:2;stroke-miterlimit:4;stroke-dasharray:4.00000014, 2.00000007;stroke-dashoffset:0;stroke-opacity:1"
         d="m 302.34421,357.84269 c 46.56845,-6.41269 93.48656,-9.32542 140.26401,-8.91715 45.98628,0.42319 91.60947,3.90015 136.62091,9.89298 l -14.89681,111.68844 c -40.83289,-5.45217 -81.80434,-8.60722 -122.6657,-8.92723 -41.50092,-0.3373 -82.98761,2.22201 -123.96975,7.85686 z" />
      <ellipse
         ry="26.247437"
         rx="110.23924"
         cy="478.85852"
         cx="484.56317"
         id="path3455"
         style="opacity:0;fill:#333333"
         d="m 589.08255,472.70675 c -1.08025,6.93093 -13.24762,11.62228 -33.44895,14.00504 -19.92825,2.35055 -47.14445,2.38779 -74.29237,0.95751 -13.61435,-0.71727 -27.33003,-1.81696 -39.86558,-3.24091 0,0 -10e-6,0 -10e-6,0 -38.24517,-4.36643 -64.31925,-11.6466 -65.0301,-22.33397 -0.342,-5.14182 5.50248,-10.68138 17.10844,-15.53014 11.62246,-4.85564 28.39083,-8.73319 48.32648,-10.5691 0,0 10e-6,0 10e-6,0 13.39877,-1.23503 27.69144,-1.50135 42.21916,-0.73661 29.21753,1.53802 56.40348,7.09727 76.22089,14.62538 19.68151,7.47648 29.82569,15.99833 28.76203,22.8228 z" />
      <g
         transform="translate(-21.785292,-310.18103)"
         id="text3369"
         style="font-style:normal;font-weight:normal;font-size:40px;line-height:125%;font-family:sans-serif;letter-spacing:0px;word-spacing:0px;fill:#f9f9f9;fill-opacity:1;stroke:#374548;stroke-width:2;stroke-linecap:butt;stroke-linejoin:miter;stroke-miterlimit:4;stroke-dasharray:none;stroke-opacity:1">
        <path
           inkscape:connector-curvature="0"
           id="path4174"
           d="m 363.58564,707.66916 c 1.35957,-0.13571 2.71941,-0.26836 4.0795,-0.39796 l 2.76337,29.02851 c -1.31666,0.12533 -2.63303,0.25362 -3.9491,0.38488 z"
           inkscape:original-d="m 366.95215,721.77972 3.94531,0 0,29.16016 -3.94531,0 0,-29.16016 z" />
        <path
           inkscape:connector-curvature="0"
           id="path4176"
           d="m 375.78819,706.53376 c 1.8327,-0.15814 3.6658,-0.31077 5.49928,-0.45788 5.11208,7.74769 10.10799,15.53783 14.98826,23.36749 l -1.59498,-24.34384 c 1.32236,-0.0867 2.64487,-0.17061 3.96752,-0.25165 l 1.78169,29.10773 c -1.77779,0.10882 -3.55525,0.22292 -5.33234,0.34232 -4.87029,-7.82307 -9.85619,-15.60658 -14.9582,-23.34759 l 1.98991,24.31378 c -1.27911,0.10468 -2.55798,0.21213 -3.83661,0.32235 z"
           inkscape:original-d="m 378.74902,721.77972 5.3125,0 12.92969,24.39454 0,-24.39454 3.82813,0 0,29.16016 -5.3125,0 -12.92969,-24.39453 0,24.39453 -3.82813,0 0,-29.16016 z" />
        <path
           inkscape:connector-curvature="0"
           id="path4178"
           d="m 406.78824,704.38507 c 1.36367,-0.0715 2.72745,-0.14004 4.09135,-0.20555 l 0.59093,12.31116 c 4.26706,-4.31808 8.59524,-8.60654 12.98351,-12.86412 1.75621,-0.0588 3.51253,-0.11257 5.26892,-0.16144 -4.87959,4.66922 -9.68627,9.37656 -14.41867,14.12035 5.5113,4.95235 10.93498,9.95428 16.27113,15.00296 -1.74128,0.0465 -3.48242,0.098 -5.2234,0.15445 -4.84459,-4.52675 -9.76043,-9.01485 -14.74757,-13.46219 l 0.67335,14.02809 c -1.32126,0.0634 -2.64237,0.12974 -3.96332,0.19896 z"
           inkscape:original-d="m 408.6709,721.77972 3.94531,0 0,12.32422 13.08594,-12.32422 5.07812,0 -14.47265,13.59375 15.50781,15.56641 -5.19531,0 -14.00391,-14.04297 0,14.04297 -3.94531,0 0,-29.16016 z" />
        <path
           inkscape:connector-curvature="0"
           id="path4180"
           d="m 452.16286,704.06562 0.0158,3.84782 c -1.54881,-0.70995 -3.01317,-1.23421 -4.3897,-1.57386 -1.3766,-0.33967 -2.70608,-0.50095 -3.98607,-0.48445 -2.22322,0.0287 -3.93529,0.47514 -5.13066,1.33045 -1.18255,0.85552 -1.7553,2.05278 -1.72407,3.589 0.0262,1.28888 0.44129,2.25726 1.24215,2.90609 0.81479,0.63619 2.33182,1.13446 4.55258,1.50678 0.81609,0.15122 1.63177,0.30351 2.44702,0.45687 3.01998,0.52507 5.2455,1.50312 6.67354,2.91564 1.44233,1.40047 2.16039,3.28722 2.16556,5.65723 0.006,2.82557 -0.95248,4.96908 -2.85912,6.4368 -1.89545,1.46913 -4.67424,2.217 -8.35161,2.26999 -1.38733,0.02 -2.86825,-0.11181 -4.44548,-0.39403 -1.56416,-0.28248 -3.19144,-0.70951 -4.88479,-1.28015 l -0.0998,-4.06166 c 1.64198,0.85848 3.24086,1.50081 4.80048,1.92646 1.5596,0.42563 3.08623,0.62789 4.58342,0.60633 2.27197,-0.0327 4.01945,-0.49248 5.24841,-1.38888 1.22828,-0.89591 1.84018,-2.16273 1.82921,-3.80346 -0.01,-1.43237 -0.46632,-2.54931 -1.37443,-3.34952 -0.89429,-0.79982 -2.367,-1.39302 -4.41722,-1.77039 -0.81874,-0.14576 -1.63789,-0.29044 -2.45744,-0.43404 -3.01209,-0.53949 -5.20428,-1.40962 -6.57891,-2.62971 -1.37344,-1.21904 -2.0925,-2.94016 -2.14747,-5.16613 -0.0637,-2.57753 0.81826,-4.63216 2.66158,-6.15763 1.85552,-1.52468 4.44649,-2.31871 7.75912,-2.36302 1.41954,-0.019 2.8678,0.0886 4.34301,0.32302 1.47519,0.23447 2.98414,0.5958 4.52488,1.08445 z"
           inkscape:original-d="m 452.40137,722.73676 0,3.84765 q -2.2461,-1.07422 -4.23828,-1.60156 -1.99219,-0.52734 -3.84766,-0.52734 -3.22266,0 -4.98047,1.25 -1.73828,1.25 -1.73828,3.55468 0,1.9336 1.15234,2.92969 1.17188,0.97656 4.41407,1.58203 l 2.38281,0.48828 q 4.41406,0.83985 6.5039,2.96875 2.10938,2.10938 2.10938,5.66407 0,4.23828 -2.85156,6.42578 -2.83203,2.1875 -8.32032,2.1875 -2.07031,0 -4.41406,-0.46875 -2.32422,-0.46875 -4.82422,-1.38672 l 0,-4.0625 q 2.40235,1.34765 4.70703,2.03125 2.30469,0.68359 4.53125,0.68359 3.37891,0 5.21485,-1.32812 1.83594,-1.32813 1.83594,-3.78907 0,-2.14843 -1.32813,-3.35937 -1.30859,-1.21094 -4.31641,-1.81641 l -2.40234,-0.46875 q -4.41406,-0.8789 -6.38672,-2.7539 -1.97265,-1.875 -1.97265,-5.21485 0,-3.86718 2.71484,-6.09375 2.73437,-2.22656 7.51953,-2.22656 2.05078,0 4.17969,0.37109 2.1289,0.3711 4.35547,1.11329 z" />
        <path
           inkscape:connector-curvature="0"
           id="path4182"
           d="m 482.93803,705.72824 -0.11538,4.15786 c -1.33235,-1.2744 -2.77246,-2.2364 -4.31733,-2.88473 -1.53135,-0.64798 -3.17385,-0.98896 -4.92328,-1.02125 -3.44588,-0.0636 -6.10017,0.92724 -7.94559,2.95201 -0.68724,0.74924 -1.24753,1.62673 -1.68139,2.63204 -0.73182,1.69534 -1.10325,3.75211 -1.12072,6.17163 -0.0174,2.41057 0.32389,4.47083 1.01748,6.1793 0.41148,1.0137 0.94721,1.90424 1.60661,2.67203 1.77172,2.04978 4.32996,3.09487 7.6903,3.1562 1.70681,0.0312 3.32072,-0.24082 4.84609,-0.81734 1.53841,-0.57619 2.99516,-1.46325 4.37335,-2.66219 l -0.11429,4.11883 c -1.41667,0.89837 -2.90816,1.56328 -4.477,1.99578 -1.55582,0.43283 -3.19558,0.63303 -4.92278,0.60199 -3.66991,-0.066 -6.68108,-1.02188 -9.05391,-2.88756 -0.49473,-0.38898 -0.96162,-0.81746 -1.40072,-1.28555 -2.5427,-2.72369 -3.82772,-6.41911 -3.81513,-11.09285 0.0126,-4.68838 1.32166,-8.37611 3.96659,-11.05524 0.45603,-0.46416 0.9413,-0.88746 1.45574,-1.26979 2.46569,-1.8327 5.60351,-2.72417 9.39144,-2.65508 1.80926,0.033 3.50589,0.3033 5.08652,0.80906 1.59449,0.49308 3.07972,1.22184 4.4534,2.18485 z"
           inkscape:original-d="m 482.14746,724.02582 0,4.16015 q -1.99219,-1.85546 -4.25781,-2.77343 -2.2461,-0.91797 -4.78516,-0.91797 -5,0 -7.65625,3.0664 -2.65625,3.04688 -2.65625,8.82813 0,5.76172 2.65625,8.82812 2.65625,3.04688 7.65625,3.04688 2.53906,0 4.78516,-0.91797 2.26562,-0.91797 4.25781,-2.77344 l 0,4.1211 q -2.07031,1.40625 -4.39453,2.10937 -2.30469,0.70313 -4.88281,0.70313 -6.6211,0 -10.42969,-4.04297 -3.80859,-4.0625 -3.80859,-11.07422 0,-7.03125 3.80859,-11.07422 3.80859,-4.0625 10.42969,-4.0625 2.61718,0 4.92187,0.70313 2.32422,0.68359 4.35547,2.07031 z" />
        <path
           inkscape:connector-curvature="0"
           id="path4184"
           d="m 499.26389,707.95846 c -2.05144,4.75023 -4.07689,9.50664 -6.07602,14.26911 3.63105,0.14053 7.26098,0.30102 10.88965,0.48115 -1.57786,-4.92044 -3.1823,-9.83726 -4.81363,-14.75026 z m -2.13177,-3.98128 c 1.54237,0.0647 3.08445,0.13286 4.62621,0.20453 3.37981,9.88548 6.64799,19.78726 9.80717,29.7037 -1.37257,-0.0792 -2.7453,-0.1556 -4.11817,-0.22915 -0.75572,-2.537 -1.51817,-5.07317 -2.28737,-7.60847 -4.43339,-0.2256 -8.86856,-0.42182 -13.30524,-0.58805 -0.98986,2.45764 -1.97296,4.91678 -2.94925,7.3774 -1.39365,-0.0484 -2.78741,-0.0937 -4.18127,-0.13606 4.02515,-9.60052 8.16212,-19.17547 12.40792,-28.7239 z"
           inkscape:original-d="m 498.02637,725.66644 -5.35157,14.51172 10.72266,0 -5.37109,-14.51172 z m -2.22657,-3.88672 4.47266,0 11.11328,29.16016 -4.10156,0 -2.65625,-7.48047 -13.14453,0 -2.65625,7.48047 -4.16016,0 11.13281,-29.16016 z" />
        <path
           inkscape:connector-curvature="0"
           id="path4186"
           d="m 521.48262,708.53608 -0.72005,10.93122 c 1.68376,0.11083 3.36717,0.22578 5.05022,0.34481 1.86845,0.13213 3.34666,-0.23477 4.4393,-1.1061 1.09215,-0.87097 1.70766,-2.18187 1.84159,-3.93422 0.13296,-1.73953 -0.27726,-3.12226 -1.23582,-4.1473 -0.95816,-1.02462 -2.38324,-1.60668 -4.27165,-1.74015 -1.70077,-0.12021 -3.40197,-0.23631 -5.10359,-0.34826 z m -3.86016,-3.49454 c 3.0656,0.18968 6.12983,0.39283 9.19261,0.60927 3.37204,0.23829 5.86206,1.17389 7.46054,2.78659 1.61418,1.60206 2.30006,3.82554 2.07131,6.6677 -0.23081,2.86774 -1.26282,4.96589 -3.08311,6.29883 -1.80859,1.3351 -4.36417,1.87624 -7.67987,1.64171 -1.67781,-0.11868 -3.35596,-0.23328 -5.03443,-0.34379 l -0.7701,11.69115 c -1.31966,-0.0869 -2.63948,-0.17129 -3.95945,-0.25306 z"
           inkscape:original-d="m 519.56934,725.02191 0,10.95703 4.96093,0 q 2.75391,0 4.25782,-1.42578 1.5039,-1.42578 1.5039,-4.0625 0,-2.61719 -1.5039,-4.04297 -1.50391,-1.42578 -4.25782,-1.42578 l -4.96093,0 z m -3.94532,-3.24219 8.90625,0 q 4.90235,0 7.40235,2.22657 2.51953,2.20703 2.51953,6.48437 0,4.31641 -2.51953,6.52344 -2.5,2.20703 -7.40235,2.20703 l -4.96093,0 0,11.71875 -3.94532,0 0,-29.16016 z" />
        <path
           inkscape:connector-curvature="0"
           id="path4188"
           d="m 542.51876,706.87716 c 6.32967,0.54103 12.65249,1.13765 18.96769,1.78822 l -0.3408,3.3028 c -4.949,-0.50992 -9.90253,-0.9866 -14.86022,-1.42923 l -0.76884,8.59781 c 4.71267,0.42098 9.42195,0.87301 14.12753,1.35541 l -0.33893,3.30297 c -4.69133,-0.48103 -9.38621,-0.93177 -14.0843,-1.35154 l -0.94105,10.52357 c 4.9723,0.44456 9.94152,0.92424 14.90728,1.43818 l -0.34187,3.30269 c -6.26636,-0.64868 -12.53798,-1.2426 -18.81404,-1.78003 z"
           inkscape:original-d="m 539.76465,721.77972 18.4375,0 0,3.32032 -14.49219,0 0,8.63281 13.88672,0 0,3.32031 -13.88672,0 0,10.56641 14.84375,0 0,3.32031 -18.78906,0 0,-29.16016 z" />
      </g>
    </g>
  </g>
</svg>
